<svg xmlns="http://www.w3.org/2000/svg" viewBox="0 0 80 80"><defs><style>.cls-1{fill:#165fa5;}</style></defs><g id="Layer_2" data-name="Layer 2"><g id="Layer_1-2" data-name="Layer 1"><path class="cls-1" d="M55,2A23,23,0,0,1,78,25V55A23,23,0,0,1,55,78H25A23,23,0,0,1,2,55V25A23,23,0,0,1,25,2H55m0-2H25A25,25,0,0,0,0,25V55A25,25,0,0,0,25,80H55A25,25,0,0,0,80,55V25A25,25,0,0,0,55,0Z"/><path class="cls-1" d="M21.2,46a.37.37,0,0,1-.4-.23,3.05,3.05,0,0,0-3.35-1.52,3.09,3.09,0,1,0,2.89,5.16,3.32,3.32,0,0,0,.82-1.6h1.51a7,7,0,0,0,2.08,5.65c-.48.4-.94.78-1.39,1.17a1.46,1.46,0,0,1-1,.37h-1.2a.43.43,0,0,1-.42-.22,3,3,0,0,0-2.89-1.41,3,3,0,0,0-2.7,2.25,3.08,3.08,0,0,0,1.12,3.28,3,3,0,0,0,3.51.15A3.19,3.19,0,0,0,21.2,56.7,4.41,4.41,0,0,0,25.59,55l.09.28a7,7,0,0,0,13.81-1.18c0-.67,0-1.34,0-2V47.05a1,1,0,0,0-1.05-1H33l-.28,0V34h5.69c.74,0,1.08-.34,1.08-1.09V27.55a17.87,17.87,0,0,0,0-2.07,6.91,6.91,0,0,0-6.16-6.14,6.76,6.76,0,0,0-6.44,2.8,7,7,0,0,0-1.22,2.67,4.35,4.35,0,0,0-4.24-1.6c0-.16-.08-.25-.1-.34a3,3,0,0,0-2.54-2.31,3.08,3.08,0,0,0-3.11,4.62,3.07,3.07,0,0,0,5.27,0,.44.44,0,0,1,.44-.25c.45,0,.9,0,1.35,0a1.17,1.17,0,0,1,.61.2c.53.39,1,.83,1.56,1.26a7,7,0,0,0-2.22,5.78c-.46,0-.88,0-1.3,0a.35.35,0,0,1-.25-.19,3.09,3.09,0,1,0-.28,2.21c0-.07.12-.18.18-.19h1.23a8.51,8.51,0,0,0,0,11.92C21.84,46,21.52,45.94,21.2,46Zm-3.11,2.56a1.29,1.29,0,0,1,0-2.58,1.31,1.31,0,0,1,1.34,1.28A1.33,1.33,0,0,1,18.09,48.52Zm0,9.16a1.25,1.25,0,0,1-1.28-1.25A1.29,1.29,0,0,1,18.1,55.1a1.32,1.32,0,0,1,1.3,1.29A1.3,1.3,0,0,1,18.1,57.68Zm1.49-34.06A1.24,1.24,0,0,1,18.3,24.9a1.29,1.29,0,1,1,1.29-1.28Zm-1.5,10.44a1.27,1.27,0,0,1-1.27-1.3,1.29,1.29,0,0,1,1.29-1.29,1.32,1.32,0,0,1,1.29,1.31A1.3,1.3,0,0,1,18.09,34.06Zm3.54,6.63a6.49,6.49,0,0,1,2.68-6c.55-.42.65-.67.43-1.32a5.19,5.19,0,0,1,2.07-6.11,1,1,0,0,0,.49-.92,5.2,5.2,0,0,1,10.3-1.06,10.33,10.33,0,0,1,.09,1.67c0,1.57,0,3.15,0,4.72,0,.16,0,.32,0,.54H32.88a1.89,1.89,0,0,0-2,1.94V45.79a1.89,1.89,0,0,0,2,2h4.63l.13,0v.34c0,1.52,0,3,0,4.56A8.49,8.49,0,0,1,37.55,55a5.21,5.21,0,0,1-10.18-.42,7.14,7.14,0,0,1-.07-.93,1,1,0,0,0-.45-.85A5.08,5.08,0,0,1,24.47,48a6.7,6.7,0,0,1,.31-1.38.94.94,0,0,0-.38-1.18A6.45,6.45,0,0,1,21.63,40.69Z"/><path class="cls-1" d="M44,59.78a.84.84,0,0,0,1,0,.86.86,0,0,0,.39-.86,1,1,0,0,0-.54-.72,5.14,5.14,0,0,1-2.4-3.28,8.15,8.15,0,0,1-.1-2.15c0-1.52,0-3,0-4.57v-.35h4.75a1.89,1.89,0,0,0,2-2V34.18a1.89,1.89,0,0,0-2-2H42.32v-.41c0-1.5,0-3,0-4.5a12.37,12.37,0,0,1,.07-2,5.2,5.2,0,0,1,10.29,1.07,1.12,1.12,0,0,0,.52.94,6,6,0,0,1,1.13,1,5.17,5.17,0,0,1,.9,5.11.94.94,0,0,0,.39,1.26,6.65,6.65,0,0,1,0,10.8.86.86,0,0,0-.4,1.16,6.16,6.16,0,0,1,.32,1.86,5.11,5.11,0,0,1-2.28,4.27,1.24,1.24,0,0,0-.58,1.07,5.11,5.11,0,0,1-2.61,4.45A.91.91,0,1,0,51,59.78a7.19,7.19,0,0,0,2.28-2.11A7.66,7.66,0,0,0,54.38,55a4.42,4.42,0,0,0,4.4,1.71c0,.23.08.37.12.52A3.09,3.09,0,0,0,65,56.69a3.07,3.07,0,0,0-1.81-3.11,2.89,2.89,0,0,0-3.48.71A1.68,1.68,0,0,1,58,55c-.16,0-.33,0-.48,0a1.46,1.46,0,0,1-.64-.19c-.56-.41-1.09-.87-1.64-1.32a7,7,0,0,0,2.06-5.68h1.51a3.09,3.09,0,0,0,3,2.55,3.08,3.08,0,0,0,2.53-4.92,3.07,3.07,0,0,0-5.18.34c0,.08-.13.21-.2.21-.39,0-.78,0-1.23,0a8.5,8.5,0,0,0,0-11.91c.4,0,.72,0,1,0a.39.39,0,0,1,.42.25,3.06,3.06,0,0,0,3.85,1.35A3.1,3.1,0,1,0,58.88,32c0,.1-.12.26-.2.26-.44,0-.89,0-1.36,0a7,7,0,0,0-2.21-5.77c.45-.39.85-.76,1.29-1.1a1.42,1.42,0,0,1,.65-.32A14.9,14.9,0,0,1,58.69,25a.46.46,0,0,1,.31.18,3.1,3.1,0,1,0,3.92-4.4A3.06,3.06,0,0,0,59.07,22a8.88,8.88,0,0,0-.49,1.12,10.81,10.81,0,0,0-2.3.33,10.67,10.67,0,0,0-2,1.26,7,7,0,0,0-13.67.12,11.31,11.31,0,0,0-.11,2.6c0,1.86,0,3.72,0,5.57a.92.92,0,0,0,1,1h5.73V46H41.66c-.81,0-1.13.31-1.14,1.12,0,2.05,0,4.1,0,6.15a7.85,7.85,0,0,0,.33,2.55A6.92,6.92,0,0,0,44,59.78Zm17.9-4.68a1.28,1.28,0,0,1,1.28,1.29,1.25,1.25,0,0,1-1.28,1.29,1.3,1.3,0,0,1-1.3-1.28A1.32,1.32,0,0,1,61.88,55.1Zm0-9.16a1.27,1.27,0,0,1,1.26,1.31,1.29,1.29,0,0,1-1.27,1.28,1.32,1.32,0,0,1-1.31-1.29A1.3,1.3,0,0,1,61.9,45.94Zm0-14.47a1.29,1.29,0,0,1,1.26,1.32,1.27,1.27,0,0,1-1.3,1.27,1.33,1.33,0,0,1-1.29-1.28A1.35,1.35,0,0,1,61.9,31.47Zm-.23-9.15A1.28,1.28,0,0,1,63,23.6a1.31,1.31,0,0,1-1.28,1.31,1.34,1.34,0,0,1-1.31-1.29A1.3,1.3,0,0,1,61.67,22.32Z"/><path class="cls-1" d="M37.71,36.08a.74.74,0,0,0-.71.55l-.66,1.51c-.69,1.56-1.37,3.11-2.05,4.67a.73.73,0,0,0,.49,1.11.77.77,0,0,0,.82-.5c.17-.35.31-.71.46-1.07.3-.73.3-.73,1.09-.73h.55c.32,0,.64,0,1,0a.45.45,0,0,1,.5.32c.22.55.47,1.09.73,1.61a.75.75,0,0,0,1,.3.7.7,0,0,0,.3-.94l-2.75-6.27A.77.77,0,0,0,37.71,36.08ZM37,40.13l.66-1.57.69,1.57Z"/><path class="cls-1" d="M42.15,42.47a.64.64,0,0,0-.65.7c0,.43.17.72.59.73,1,0,2,0,3,0,.42,0,.6-.3.59-.73a.65.65,0,0,0-.67-.71h-.65V37.64a5.27,5.27,0,0,0,.69,0A.73.73,0,0,0,45,36.18h-.71c-.69,0-1.38,0-2.07,0a.72.72,0,0,0-.07,1.43,6.36,6.36,0,0,0,.77.05v4.8Z"/></g></g></svg>