<svg xmlns="http://www.w3.org/2000/svg" viewBox="0 0 80 80"><defs><style>.cls-1{fill:#165fa5;}</style></defs><g id="Layer_2" data-name="Layer 2"><g id="Layer_1-2" data-name="Layer 1"><path class="cls-1" d="M55,2A23,23,0,0,1,78,25V55A23,23,0,0,1,55,78H25A23,23,0,0,1,2,55V25A23,23,0,0,1,25,2H55m0-2H25A25,25,0,0,0,0,25V55A25,25,0,0,0,25,80H55A25,25,0,0,0,80,55V25A25,25,0,0,0,55,0Z"/><path class="cls-1" d="M20.53,38.08c2.51,1.39,5.09,2.63,7.62,4a1,1,0,0,1,.49.45q2.22,5.4,4.42,10.82c.33.8.65,1.61,1,2.43l-.55.1A11,11,0,0,0,25,63.64,1,1,0,0,0,26,65c1.64,0,3.28,0,4.92,0h24.7a1,1,0,0,0,1-1.31,11.12,11.12,0,0,0-9-7.94c0-.09.05-.17.08-.25Q50.33,49.06,53,42.62a.67.67,0,0,1,.3-.3c2.47-1.28,5-2.51,7.41-3.82a15.21,15.21,0,0,0,8.6-14.09A4.66,4.66,0,0,0,63.82,20a23.76,23.76,0,0,0-2.69.82L59,21.5c.19-.66.37-1.25.52-1.85a2.33,2.33,0,0,0,.07-.79,2,2,0,0,0-1.3-1.52,14,14,0,0,0-2.41-.9c-1.16-.3-2.35-.49-3.53-.71a1,1,0,1,0-.28,1.9c.88.16,1.77.28,2.64.5s1.78.59,2.67.89c.19.07.27.19.2.44-1,3.69-2.05,7.38-3.09,11.07-.59,2.14-1.19,4.29-1.82,6.42a49.13,49.13,0,0,1-1.74,5.69c-.5,1.16-1,2.34-1.45,3.53a14.24,14.24,0,0,0-8.61-2.42,14.33,14.33,0,0,0-8.61,2.36q-.27-.64-.51-1.26c-.52-1.3-1.12-2.58-1.54-3.91C29.53,39,29,37,28.47,35q-2.17-7.75-4.34-15.49c-.08-.27,0-.43.22-.52A27.17,27.17,0,0,1,27,18.13,53.11,53.11,0,0,1,36.48,17q4.55-.21,9.09,0a1.39,1.39,0,0,0,.8-.28.95.95,0,0,0-.55-1.62c-.8-.05-1.6-.09-2.4-.11a97.7,97.7,0,0,0-10.82.33,43.24,43.24,0,0,0-6.79,1.08A8.63,8.63,0,0,0,23,17.56a1.82,1.82,0,0,0-.8,2.26c.18.49.29,1,.44,1.55l-.33-.1c-1.18-.4-2.36-.82-3.55-1.18a4.72,4.72,0,0,0-6.11,4.52,15,15,0,0,0,.81,4.93A15,15,0,0,0,20.53,38.08Zm33.85-.26,2.34-8.36c.51-1.81,1-3.62,1.53-5.43a.61.61,0,0,1,.32-.35c1.66-.58,3.35-1.1,5-1.71a2.84,2.84,0,0,1,3.81,2.76,13.27,13.27,0,0,1-6.87,11.65c-2.14,1.25-4.4,2.3-6.7,3.49Zm-.16,24.91c.05.09.08.19.14.31H27.26c.17-.33.31-.63.49-.92a9.13,9.13,0,0,1,6.65-4.49c.31-.05.63-.06,1-.08a.93.93,0,0,0,.92-.93,2.42,2.42,0,0,0-.16-.89c-.39-1-.79-2-1.22-3-.11-.27,0-.37.18-.5a11.83,11.83,0,0,1,4.08-1.31,12.15,12.15,0,0,1,7,1.11c.23.11.45.24.7.38-.45,1.12-.91,2.2-1.33,3.28a2.64,2.64,0,0,0-.16.93.92.92,0,0,0,.93.94A9.11,9.11,0,0,1,54.22,62.73Zm-21-14.92A7.19,7.19,0,0,1,36,46.36a16.11,16.11,0,0,1,10.2.22,6.35,6.35,0,0,1,2.24,1.32.36.36,0,0,1,.1.48c-.31.72-.6,1.45-.91,2.19a14.36,14.36,0,0,0-13.59,0c-.31-.76-.61-1.52-.93-2.26A.38.38,0,0,1,33.23,47.81Zm-15-25.87c1.63.51,3.25,1.08,4.87,1.64a.44.44,0,0,1,.25.25q2.2,7.84,4.4,15.68s0,.05,0,.13c-1.35-.69-2.69-1.37-4-2.06-1-.5-1.95-1-2.86-1.54a13.36,13.36,0,0,1-5.79-7.83,13.63,13.63,0,0,1-.49-3.59A2.8,2.8,0,0,1,18.22,21.94Z"/><path class="cls-1" d="M45.17,25.86c.08-.58.19-1.16.29-1.74l.21-1.21a1.26,1.26,0,0,0-.5-1.31,1.24,1.24,0,0,0-1.4-.11c-.9.46-1.8.93-2.69,1.41a.49.49,0,0,1-.52,0c-.88-.48-1.77-.94-2.66-1.4A1.32,1.32,0,0,0,36,22.87c.15,1,.29,1.91.51,2.85a.71.71,0,0,1-.27.78c-.7.65-1.39,1.32-2.06,2a1.24,1.24,0,0,0-.32,1.36,1.27,1.27,0,0,0,1.1.88l2.93.42a.52.52,0,0,1,.45.32c.43.91.88,1.8,1.33,2.69a1.23,1.23,0,0,0,1.18.75A1.25,1.25,0,0,0,42,34.15c.44-.87.88-1.75,1.29-2.63a.61.61,0,0,1,.52-.38q1.47-.2,2.94-.42a1.24,1.24,0,0,0,1-.87,1.28,1.28,0,0,0-.37-1.42c-.7-.69-1.42-1.38-2.12-2.08A.66.66,0,0,1,45.17,25.86Z"/></g></g></svg>