<svg xmlns="http://www.w3.org/2000/svg" viewBox="0 0 80 80"><defs><style>.cls-1{fill:#165fa5;}</style></defs><g id="Layer_2" data-name="Layer 2"><g id="Layer_1-2" data-name="Layer 1"><path class="cls-1" d="M55,2A23,23,0,0,1,78,25V55A23,23,0,0,1,55,78H25A23,23,0,0,1,2,55V25A23,23,0,0,1,25,2H55m0-2H25A25,25,0,0,0,0,25V55A25,25,0,0,0,25,80H55A25,25,0,0,0,80,55V25A25,25,0,0,0,55,0Z"/><path class="cls-1" d="M63.5,30.36a3.69,3.69,0,0,0-3.85-3.11h-2.3l.33-.47a.6.6,0,0,1,.11-.12l.14-.09.08-.05a5.86,5.86,0,0,0,2.8-6,5.78,5.78,0,0,0-4-4.94,7,7,0,0,0-.85-.26l-.39-.1H54.09l-.73.23a7.05,7.05,0,0,0-1.54.6,6.06,6.06,0,0,0-.19,10.44l.19.13.41.27.8.25a6,6,0,0,0,3.55,0l1-.3L54.82,29.6l-2.51-2.48-.62.1-.25,0H49.93a3.72,3.72,0,0,0-3.83,3.19c0,.21-.09.43-.14.64l-.09.46h-12l-.1-.5c-.05-.2-.09-.4-.13-.6a3.71,3.71,0,0,0-3.83-3.19H27.38L25,29.63l-2.74-2.74.94.28a6.11,6.11,0,0,0,3.64,0l.88-.28.24-.19.2-.15a6.08,6.08,0,0,0-2.24-11.19.71.71,0,0,1-.22-.07H24.2l-.33.08a7.78,7.78,0,0,0-.77.22A5.86,5.86,0,0,0,19,20.49a5.89,5.89,0,0,0,2.83,6.05.79.79,0,0,1,.32.35l.18.36h-1c-.4,0-.82,0-1.22,0a5.62,5.62,0,0,0-1.63.3,3.49,3.49,0,0,0-2.19,2.67l-.57,2.84L15.34,35a1.23,1.23,0,0,1-.09.23v.51a1.29,1.29,0,0,0,1.45.79c1.1,0,2.23,0,3.32,0h2.11a.75.75,0,0,1,.77.49l3.49,7.63,5.37,11.74a1.13,1.13,0,0,1,0,.79,4.12,4.12,0,0,1-.23.58,4.51,4.51,0,0,0-.27.75c-.34,1.57-.65,3.17-1,4.72l0,.25a1.07,1.07,0,0,0,.18.89,1.14,1.14,0,0,0,.9.38H48.48a1.09,1.09,0,0,0,.88-.36,1.16,1.16,0,0,0,.19-1l-.17-.87c-.16-.82-.31-1.65-.5-2.47l-.15-.77A5.3,5.3,0,0,0,48,57.06c-.11-.16-.09-.4.06-.73l3.63-7.92c1.73-3.79,3.47-7.57,5.19-11.36a.83.83,0,0,1,.84-.53h0c1.89,0,3.77,0,5.66,0a1,1,0,0,0,1.08-1.3C64.14,33.5,63.83,32,63.5,30.36Zm-8.67-4.94h0A4,4,0,0,1,52,24.24a4.08,4.08,0,0,1,0-5.76,4,4,0,0,1,2.86-1.2h0a4.07,4.07,0,0,1,0,8.14ZM20.9,21.37A4.1,4.1,0,0,1,25,17.28h0a4,4,0,0,1,2.85,1.18,4.08,4.08,0,0,1,0,5.76A4,4,0,0,1,25,25.42h0A4.09,4.09,0,0,1,20.9,21.37ZM17.5,34.48l.06-.3c.08-.37.15-.74.22-1.1.17-.86.34-1.74.55-2.6a1.58,1.58,0,0,1,1.5-1.21h.11c1.6-.07,1.67,0,2.8,1.09l.43.43c.34.34.67.68,1,1a1,1,0,0,0,1.55,0c.3-.29.6-.59.89-.9s.85-.85,1.29-1.27a1.61,1.61,0,0,1,.86-.36,8.69,8.69,0,0,1,1.35,0,1.47,1.47,0,0,1,1.43,1.1c.22.88.4,1.75.59,2.67.07.37.15.75.23,1.13l.06.3ZM32.43,62.7l.42-2.09c.11-.58.22-1.16.35-1.74a1.65,1.65,0,0,1,1.63-1.39,9.13,9.13,0,0,1,1.4,0,1.21,1.21,0,0,1,.68.33c.49.47,1,1,1.43,1.42l.61.62a1.5,1.5,0,0,0,.94.54h0a1.41,1.41,0,0,0,.92-.52l.65-.65c.47-.48.94-1,1.43-1.42a1.25,1.25,0,0,1,.73-.32,7.89,7.89,0,0,1,1.19,0,1.7,1.7,0,0,1,1.78,1.42c.17.8.33,1.6.49,2.42l.27,1.38Zm13.78-7.19h-4L39.9,57.78l-2.29-2.29h-4l-.11-.22L24.87,36.53h8.55a1.24,1.24,0,0,0,1-.36,1.3,1.3,0,0,0,.15-1.11q-.08-.39-.15-.81l-.12-.65H45.47l-.14.69c-.06.32-.13.62-.18.93a1.12,1.12,0,0,0,.18,1,1.15,1.15,0,0,0,.9.36h8.68Zm1.15-21,.06-.3c.19-1,.38-1.93.56-2.88l0-.16a6.21,6.21,0,0,1,.14-.62,1.63,1.63,0,0,1,1.53-1.24,12.31,12.31,0,0,1,1.49,0,1.06,1.06,0,0,1,.65.32c.46.44.91.89,1.35,1.34l.76.76a1,1,0,0,0,1.75,0l.69-.69c.47-.48.94-1,1.43-1.42a1.34,1.34,0,0,1,.77-.33,11.31,11.31,0,0,1,1.3,0,1.67,1.67,0,0,1,1.6,1.23c0,.13.07.27.1.41l.7,3.57Z"/><path class="cls-1" d="M46,49.22A5.86,5.86,0,0,0,43.8,44.9a6,6,0,0,0-8.53.7,6.11,6.11,0,0,0-1.36,4.88A6.29,6.29,0,0,0,37.08,55l.6.37.53.06.47.07a8.15,8.15,0,0,0,1.24.12,8,8,0,0,0,1.21-.12l.48-.08.73-.09-.11.11.6-.41A6.37,6.37,0,0,0,46,49.22Zm-6.06,4.41h0A4,4,0,0,1,37,52.42a4,4,0,0,1-1.18-2.88A4.09,4.09,0,0,1,37,46.67a4,4,0,0,1,2.84-1.18h0a4.1,4.1,0,0,1,4,4.09A4.08,4.08,0,0,1,39.89,53.63Z"/></g></g></svg>