<svg xmlns="http://www.w3.org/2000/svg" viewBox="0 0 80 80"><defs><style>.cls-1{fill:#165fa5;}</style></defs><g id="Layer_2" data-name="Layer 2"><g id="Layer_1-2" data-name="Layer 1"><path class="cls-1" d="M55,2A23,23,0,0,1,78,25V55A23,23,0,0,1,55,78H25A23,23,0,0,1,2,55V25A23,23,0,0,1,25,2H55m0-2H25A25,25,0,0,0,0,25V55A25,25,0,0,0,25,80H55A25,25,0,0,0,80,55V25A25,25,0,0,0,55,0Z"/><path class="cls-1" d="M60.3,22.87a5.35,5.35,0,0,0-2.81-.77,5.49,5.49,0,0,0-2.84.75,5.49,5.49,0,0,1,2.84-.75A5.35,5.35,0,0,1,60.3,22.87Z"/><path class="cls-1" d="M17.3,47.53v.75a7.85,7.85,0,0,0,8,8h7.26a8,8,0,0,0,4.53-1.34c.5-.33,1-.68,1.49-1a2.57,2.57,0,0,1,2.93,0c.49.31,1,.65,1.45,1a7.78,7.78,0,0,0,4.3,1.35c2.6,0,5.2,0,7.8,0a7.81,7.81,0,0,0,7.57-6.71c.09-.66.1-1.33.14-2h1.62a1.74,1.74,0,0,0,1.82-1.82q0-4.29,0-8.56a1.75,1.75,0,0,0-1.86-1.84H62.65c0-.16,0-.25-.06-.34A7.8,7.8,0,0,0,55,28.36c-10,0-20-.06-30,0a7.44,7.44,0,0,0-7.06,4.79,20,20,0,0,0-.68,2.18,8.18,8.18,0,0,0-1.21,0,2.79,2.79,0,0,0-2.24,2v8.07A2.92,2.92,0,0,0,17.3,47.53ZM62.73,37.1h1.68v8.66H62.73ZM60.6,50.41A6.06,6.06,0,0,1,55,54.52c-2.6,0-5.2,0-7.8,0a5.91,5.91,0,0,1-3.23-1c-.52-.34-1-.71-1.55-1a4.27,4.27,0,0,0-4.78,0l0,0a9.31,9.31,0,0,1-7,2.07c-1.83-.12-3.67,0-5.5,0a6.08,6.08,0,0,1-5.83-4.7c0-.15-.06-.32-.09-.5H60.87A10.85,10.85,0,0,1,60.6,50.41Zm-37-20.08a7.06,7.06,0,0,1,1.72-.23q14.72,0,29.44,0A6,6,0,0,1,60.05,33c.1.15.16.31.27.52H19.67A5.94,5.94,0,0,1,23.56,30.33Zm-4.46,5H60.87V47.52H19.1ZM15.56,38a.85.85,0,0,1,.9-.89h.82v8.71a5.66,5.66,0,0,1-1,0,.8.8,0,0,1-.71-.83Q15.55,41.45,15.56,38Z"/><path class="cls-1" d="M15.07,24.87c.45,0,.89,0,1.32,0,0,.12,0,.15,0,.19v1.36c0,.67.35,1.08.89,1.06s.85-.4.85-1,0-1,0-1.56c.59,0,1.1,0,1.61,0a.9.9,0,0,0,1-.85c0-.53-.38-.88-1-.89H18.18c0-.57,0-1.1,0-1.62a.88.88,0,0,0-.85-1c-.53,0-.88.38-.89,1s0,1,0,1.6c-.49,0-.93,0-1.36,0a1.26,1.26,0,0,0-1.26.55v.65A1.28,1.28,0,0,0,15.07,24.87Z"/><path class="cls-1" d="M61.83,63.74c0-.44,0-.89,0-1.36h1.55c.67,0,1.08-.35,1.07-.89s-.41-.85-1-.85H61.82c0-.6,0-1.11,0-1.62A.9.9,0,0,0,61,58c-.53,0-.88.38-.89,1s0,1,0,1.61H58.45a.88.88,0,0,0-1,.85c0,.53.38.88,1,.89h1.61c0,.5,0,.93,0,1.36A1.27,1.27,0,0,0,60.62,65h.66A1.29,1.29,0,0,0,61.83,63.74Z"/><path class="cls-1" d="M50.28,25.87c-.16-.11-.34-.2-.52-.3a19.86,19.86,0,0,0-9.91-2.46A18.48,18.48,0,0,0,33,24.32c-1.11.44-2.17,1-3.24,1.53A.8.8,0,0,0,29.4,27a.82.82,0,0,0,1,.47,2.06,2.06,0,0,0,.54-.26,18.51,18.51,0,0,1,15.92-1c.88.33,1.7.82,2.55,1.22a.87.87,0,0,0,.88-1.49Z"/><path class="cls-1" d="M49.37,57.27l-.33.19a18.61,18.61,0,0,1-13,1.92,17.56,17.56,0,0,1-5.32-2,.89.89,0,0,0-1.39.4c-.16.44,0,.83.58,1.14a19.81,19.81,0,0,0,10.19,2.63,18.73,18.73,0,0,0,7.15-1.32c1-.4,2-.91,2.93-1.41a.83.83,0,0,0,.35-1.21A.87.87,0,0,0,49.37,57.27Z"/><path class="cls-1" d="M65.36,17.91A13.32,13.32,0,0,0,57.43,15c-1.14.2-2.3.32-3.42.61a11.31,11.31,0,0,0-4.75,2.57.88.88,0,0,0,.15,1.52,1,1,0,0,0,1.09-.29,10.39,10.39,0,0,1,6.2-2.52,10.56,10.56,0,0,1,7.77,2.56.89.89,0,0,0,1.31,0,.92.92,0,0,0-.17-1.34Z"/><path class="cls-1" d="M63.08,20.57a8.69,8.69,0,0,0-5.27-1.95,9.11,9.11,0,0,0-5.94,1.92c-.56.43-.67.91-.34,1.35s.83.46,1.39,0a7.24,7.24,0,0,1,9.08,0c.56.41,1.06.39,1.39-.06S63.6,21,63.08,20.57Z"/><path class="cls-1" d="M60.87,23.26a5.72,5.72,0,0,0-.57-.39,5.35,5.35,0,0,0-2.81-.77,5.49,5.49,0,0,0-2.84.75,5,5,0,0,0-.56.38.89.89,0,1,0,1,1.41,3.79,3.79,0,0,1,4.7,0c.53.38,1,.35,1.35-.07S61.38,23.66,60.87,23.26Z"/><path class="cls-1" d="M45,37.08c-1.6,0-3.2,0-4.8,0a1,1,0,0,0-1.11.77c-.48,1.34-1,2.68-1.5,4l-.23.5c-.09-.24-.16-.38-.22-.53-.5-1.34-1-2.68-1.51-4-.23-.6-.68-.86-1.17-.68s-.69.68-.46,1.31l.42,1.12q1.05,2.77,2.08,5.56a.91.91,0,0,0,.88.68.9.9,0,0,0,.85-.66c0-.12.08-.24.13-.36.69-1.85,1.38-3.7,2.09-5.55.06-.16.22-.39.35-.39,1.17,0,2.34,0,3.51,0v1.75c-.8,0-1.56,0-2.32,0A1,1,0,0,0,41,41a.93.93,0,0,0,.2,1.1c.79,1,1.57,2.09,2.36,3.14.41.55.9.67,1.34.34s.46-.82,0-1.39l-1.44-1.92H45c.76,0,1.07-.31,1.08-1.05V38.15C46.1,37.38,45.8,37.08,45,37.08Z"/><path class="cls-1" d="M58.26,37.08H55.81a.88.88,0,0,0-1,.88.89.89,0,0,0,1,.86h1.63v.84c0,.28,0,.55,0,.82a.87.87,0,1,0,1.74,0c0-.82,0-1.63,0-2.45A.86.86,0,0,0,58.26,37.08Z"/></g></g></svg>