<svg xmlns="http://www.w3.org/2000/svg" viewBox="0 0 70.01 70"><defs><style>.cls-1{fill:#0095cb;}</style></defs><g id="Layer_2" data-name="Layer 2"><g id="Layer_1-2" data-name="Layer 1"><path class="cls-1" d="M2.18,47.15a35,35,0,0,0,67.12-19c-.3-1.47-.71-2.92-1.15-4.35a2,2,0,0,0-2.54-1.37,2,2,0,0,0-1.38,2.53c.08.31.17.62.27.92a30.88,30.88,0,0,1-28.43,40,29.27,29.27,0,0,1-16.93-4.42C8.36,54.59,3.29,44.68,4.32,31.93A28.86,28.86,0,0,1,15,11.54c8.61-7.18,18.43-9.1,29.2-6a33,33,0,0,1,7.14,3.22,2,2,0,0,0,2.06-3.53A33.84,33.84,0,0,0,41.78.69C40.18.39,38.54.23,36.92,0H33c-1.33.18-2.66.31-4,.54A34.37,34.37,0,0,0,9,11.67,34.57,34.57,0,0,0,.17,31.48C.11,32,.06,32.46,0,33v4.1c0,.22.1.44.12.66A33.51,33.51,0,0,0,2.18,47.15Z"/><path class="cls-1" d="M64.25,9.16a2.08,2.08,0,0,0-2.54.77Q51.42,22.13,41.15,34.34l-6.31,7.48-.4-.35-14-13.2a4.79,4.79,0,0,0-.73-.62,2,2,0,0,0-2.19,0,1.75,1.75,0,0,0-.93,2,3.2,3.2,0,0,0,.89,1.54Q25.32,38.6,33.26,46c1.32,1.24,2.44,1.18,3.6-.2L47.92,32.69q8.46-10,16.9-20.08a3.16,3.16,0,0,0,.66-1.38A1.91,1.91,0,0,0,64.25,9.16Z"/></g></g></svg>