<svg xmlns="http://www.w3.org/2000/svg" viewBox="0 0 66.18 70"><defs><style>.cls-1{fill:#0ac;}</style></defs><g id="Layer_2" data-name="Layer 2"><g id="Layer_1-2" data-name="Layer 1"><path class="cls-1" d="M47,22.7c-4.11-5.34-9.56-7.78-16.29-6.91a16.75,16.75,0,0,0-12,7.37,16.64,16.64,0,0,0-3,10.67,17.48,17.48,0,0,0,2.44,8l3.69,6.23A7.48,7.48,0,0,1,23,51.62c.05,1.4,0,2.79,0,4.19h0c0,1.3,0,2.6,0,3.9a3.88,3.88,0,0,0,2,3.61A2.72,2.72,0,0,1,26.41,65a7.57,7.57,0,0,0,1.87,3.14A6.46,6.46,0,0,0,33.77,70a7.38,7.38,0,0,0,2.82-.81A6.2,6.2,0,0,0,39.66,65a2.45,2.45,0,0,1,1.49-1.78,3.41,3.41,0,0,0,1-.65,3.09,3.09,0,0,0,.9-2.4c0-1.53,0-3.07,0-4.6s.18-2.88.34-4.32a13.66,13.66,0,0,1,2.22-5.46c.83-1.4,1.75-2.75,2.54-4.17a17.38,17.38,0,0,0,2.35-8.31A16.57,16.57,0,0,0,47,22.7ZM33.82,67A12.26,12.26,0,0,1,32,66.88a2.59,2.59,0,0,1-2-1.36c-.28-.51-.5-1.07-.77-1.65h7.62A3.34,3.34,0,0,1,33.82,67Zm5.6-6.23a4.87,4.87,0,0,1-1,.1H27.5c-1.18,0-1.33-.15-1.36-1.33,0-.5,0-1,0-1.54H39.58c.34,0,.49.09.5.44s.1,1,.09,1.47A.77.77,0,0,1,39.42,60.72ZM26.23,54.55V52.09H40v2.46ZM46.44,38.11A38.84,38.84,0,0,1,44,42.65c-1.12,1.94-2.21,3.9-3.33,5.84a.56.56,0,0,1-.38.26H33.14c-1.7,0-3.41,0-5.12,0h-1.7a.88.88,0,0,1-.88-.51q-2.27-4.05-4.57-8.08A14,14,0,0,1,22.2,23.9a13.85,13.85,0,0,1,7.38-4.83A14.79,14.79,0,0,1,36.1,19a13.33,13.33,0,0,1,7,3.45,14.75,14.75,0,0,1,4.43,8.82A13.25,13.25,0,0,1,46.44,38.11Z"/><path class="cls-1" d="M8.25,31.55a2.68,2.68,0,0,0-.69-.1c-1.85,0-3.71,0-5.56,0a2.14,2.14,0,0,0-1.7.79,1.16,1.16,0,0,0,0,1.57A2.14,2.14,0,0,0,2,34.57H4.8c.9,0,1.8,0,2.71,0a3.94,3.94,0,0,0,.69-.08A1.54,1.54,0,0,0,9.45,33,1.47,1.47,0,0,0,8.25,31.55Z"/><path class="cls-1" d="M64.66,31.49c-1-.06-2.06,0-3.09,0v0c-.92,0-1.83,0-2.75,0a2.19,2.19,0,0,0-1.77.78,1.16,1.16,0,0,0,0,1.6,2,2,0,0,0,1.54.75c2,0,4,0,5.94,0a1.58,1.58,0,0,0,1.57-1.05A1.51,1.51,0,0,0,64.66,31.49Z"/><path class="cls-1" d="M51.83,16.37A11.76,11.76,0,0,0,53,15.3c1-1,2-2,3-3a2.24,2.24,0,0,0,.74-1.76l.1,0a4,4,0,0,0-.45-.9,3.28,3.28,0,0,0-.84-.57.24.24,0,0,0-.22,0,6,6,0,0,0-1,.65c-1.37,1.33-2.72,2.68-4.07,4a4.79,4.79,0,0,0-.68.81,1.22,1.22,0,0,0,.19,1.63A1.48,1.48,0,0,0,51.83,16.37Z"/><path class="cls-1" d="M15.41,49.17a.23.23,0,0,0-.14,0,5.76,5.76,0,0,0-1.07.65c-.91.85-1.78,1.73-2.66,2.61-.62.62-1.26,1.23-1.84,1.89a1.84,1.84,0,0,0-.46,1,1.49,1.49,0,0,0,2.06,1.42,4.27,4.27,0,0,0,1-.76c.59-.55,1.15-1.14,1.72-1.71S15.33,53,16,52.3a2.19,2.19,0,0,0,.6-1.57A1.68,1.68,0,0,0,15.41,49.17Z"/><path class="cls-1" d="M9.69,11.69c1.49,1.51,3,3,4.5,4.5a1.57,1.57,0,0,0,1.25.44c.49,0,1.35-.71,1.33-1.18a1.89,1.89,0,0,0-.42-1.19c-1.52-1.57-3.09-3.08-4.65-4.6A3.24,3.24,0,0,0,11,9.28a11.27,11.27,0,0,0-1.24.41A1,1,0,0,0,9.25,11,2,2,0,0,0,9.69,11.69Z"/><path class="cls-1" d="M56.44,54.37c-1.48-1.51-3-3-4.51-4.48a1.39,1.39,0,0,0-1.44-.37,1.27,1.27,0,0,0-.74,2.24c.27.31.57.6.86.89l3.6,3.55a2.57,2.57,0,0,0,1.36.6,3,3,0,0,0,.7-.38,4.94,4.94,0,0,0,.6-.82c0-.05.07-.12.05-.16A3.27,3.27,0,0,0,56.44,54.37Z"/><path class="cls-1" d="M31.69,3.7c0,1.21,0,2.43,0,3.65a2.2,2.2,0,0,0,.72,1.56,1.19,1.19,0,0,0,1.91-.29,2.16,2.16,0,0,0,.22-.94c0-1,0-2.08,0-3.13h0c0-1.06,0-2.13,0-3.19A1.2,1.2,0,0,0,33.41,0c-1-.12-1.76.06-1.73,1.38C31.7,2.17,31.69,2.94,31.69,3.7Z"/><path class="cls-1" d="M43.27,32.66a1.54,1.54,0,0,0-.34-.17c-.7-.13-.91-.56-1.07-1.23a1.38,1.38,0,0,1,.43-1.55,1.7,1.7,0,0,0,.21-2.25,15.87,15.87,0,0,0-1.41-1.75,1.72,1.72,0,0,0-2.19-.31,4.53,4.53,0,0,1-.61.34.75.75,0,0,1-.47,0c-.4-.17-.79-.36-1.18-.57a.51.51,0,0,1-.23-.29c-.07-.29-.08-.6-.14-.9a1.39,1.39,0,0,0-1.49-1.19c-.84,0-1.69,0-2.53,0a1.11,1.11,0,0,0-1.09.56,2.25,2.25,0,0,0-.34.91c0,.64-.36.92-.91,1.22a1.42,1.42,0,0,1-1.7-.06,1.63,1.63,0,0,0-2.13.25,16.79,16.79,0,0,0-1.45,1.8,1.75,1.75,0,0,0,.17,2.23,6.37,6.37,0,0,1,.5.55.53.53,0,0,1,.09.37c-.08.44-.17.87-.29,1.3a.59.59,0,0,1-.26.32c-.25.13-.53.19-.78.31-.49.23-.85.54-.76,1.16a6.46,6.46,0,0,1,0,.88h0c0,.37,0,.75,0,1.12.13,1.39,1,2.37,2.35,2.12a1.09,1.09,0,0,1,1.12.5,1.64,1.64,0,0,1,.4,1.92,1.52,1.52,0,0,0,.61,1.81,3.32,3.32,0,0,0,2.45.85,2,2,0,0,1,.6,0,1.32,1.32,0,0,0,1.57-.84.56.56,0,0,1,.67-.37,3.47,3.47,0,0,0,.91,0,.61.61,0,0,1,.73.37,4.14,4.14,0,0,0,.38.55.66.66,0,0,0,.6.29c.63,0,1.26,0,1.9,0a.93.93,0,0,0,.37-.06,13.74,13.74,0,0,0,1.35-.76,1.63,1.63,0,0,0,.62-2c-.25-.63-.3-1.16.3-1.59a.31.31,0,0,0,.07-.09c.26-.59.71-.69,1.33-.61a1.79,1.79,0,0,0,2.08-1.9c0-.83,0-1.66,0-2.5A.78.78,0,0,0,43.27,32.66Zm-1,2.44c-.23,1.06-.23,1-1.32,1a1.78,1.78,0,0,0-1.56.72c-.32.39-.62.79-.94,1.18a1.88,1.88,0,0,0-.35,1.94c.28.81.27.82-.51,1.21-.28.14-.58.26-.86.39a.3.3,0,0,1-.42-.14c-.12-.2-.25-.39-.38-.59A1.77,1.77,0,0,0,34.37,40H32.71a1.73,1.73,0,0,0-1.49.78l-.15.23c-.43.65-.43.65-1.15.32l-.06,0c-.33-.18-.8-.29-.94-.57s.08-.69.16-1A1.83,1.83,0,0,0,28.66,38a9,9,0,0,1-.77-1,1.91,1.91,0,0,0-2-.89c-.8.11-.81.09-1-.71-.08-.33-.13-.67-.2-1s0-.32.21-.37a2.28,2.28,0,0,0,1.93-2.3,3.44,3.44,0,0,1,.19-.75,1.81,1.81,0,0,0-.41-1.8.27.27,0,0,1-.07-.08c-.61-.65-.62-.66-.08-1.36.23-.29.44-.7.73-.78s.63.23.94.39a1.85,1.85,0,0,0,1.82,0,11.56,11.56,0,0,1,1.23-.59,1.81,1.81,0,0,0,1.14-1.38l0-.24c.11-.83.11-.84.93-.87.34,0,.68,0,1,.05s.29.08.31.29a6.33,6.33,0,0,0,.12.76,1.8,1.8,0,0,0,1.12,1.39c.42.18.83.37,1.24.58a1.87,1.87,0,0,0,1.91,0c.84-.49.85-.48,1.47.3.21.27.4.55.62.86l-.64.7A1.84,1.84,0,0,0,40.06,31c.11.41.21.84.29,1.26a1.86,1.86,0,0,0,1.21,1.51C42.47,34.14,42.47,34.14,42.26,35.1Z"/><path class="cls-1" d="M33.63,28.28a4.89,4.89,0,1,0,4.82,4.94A4.89,4.89,0,0,0,33.63,28.28Zm-.1,8.07a3.19,3.19,0,1,1,3.23-3.14A3.2,3.2,0,0,1,33.53,36.35Z"/></g></g></svg>