<svg xmlns="http://www.w3.org/2000/svg" viewBox="0 0 84.1 70"><defs><style>.cls-1{fill:#0ac;}</style></defs><g id="Layer_2" data-name="Layer 2"><g id="Layer_1-2" data-name="Layer 1"><path class="cls-1" d="M2.74,38.45V4.16A1.42,1.42,0,0,1,4.06,2.83H8.42c10.55,0,21.11,0,31.66,0,7.57,0,15.14.08,22.72.09,1.17,0,1.57.44,1.75,1.69a7.37,7.37,0,0,1,0,.94H67.4A6.77,6.77,0,0,0,66.6,2,3.77,3.77,0,0,0,63.36.05q-21,0-42,0C15.71,0,10,.07,4.36.07A4.3,4.3,0,0,0,.24,2.64a2.08,2.08,0,0,0-.2.9Q0,9.74,0,16C0,27.06.06,38.17.06,49.29a3.7,3.7,0,0,0,2,3.29,3.22,3.22,0,0,0,1.48.57c2.33.06,4.66,0,7,0l16,.1c.22,0,.44,0,.72,0a4.39,4.39,0,0,1-.08.5c-.52,2.06-1,4.12-1.58,6.16-.48,1.75-.25,1.64-2.24,1.71-.87,0-1.75,0-2.62.08A1.27,1.27,0,0,0,19.62,63a1.16,1.16,0,0,0,1,1.3,11.06,11.06,0,0,0,1.62.13q6.9.06,13.78.08a2.46,2.46,0,0,0,.37,0V61.7h-2c-1.86,0-3.72,0-5.57,0-.66,0-.7-.1-.54-.74.57-2.31,1.17-4.62,1.72-6.93a.9.9,0,0,1,1-.8c1.6,0,3.19,0,4.79,0l.55,0V50.37H35.34L4.42,50.31c-1.31,0-1.49-.19-1.59-1.49a1.49,1.49,0,0,1,0-.21c0-2.07-.05-4.14-.07-6.21,0-.11,0-.23.06-.4H36.43V39.2H2.74Z"/><path class="cls-1" d="M83.9,25.58a3.89,3.89,0,0,0-3.53-3.12c-1.56,0-3.12,0-4.68,0-5.29,0-10.59.06-15.88.12a3.67,3.67,0,0,0-3.55,3.28c-.12,1.2-.2,2.41-.2,3.62,0,12.13,0,24.26,0,36.39a4.29,4.29,0,0,0,1.21,2.91A4.22,4.22,0,0,0,60.75,70c6.45,0,12.9-.06,19.35,0a4,4,0,0,0,3.42-2,2.87,2.87,0,0,0,.54-1.76c0-6.52,0-13,0-19.56h0c0-5.74,0-11.47,0-17.2C84.09,28.17,84,26.87,83.9,25.58Zm-4,41.7-19.45-.1c-1.16,0-1.53-.28-1.57-1.42-.1-2.22-.08-4.45-.1-6.67,0,0,0-.07.06-.13H81.3a4.38,4.38,0,0,1,0,.5v6.42A1.54,1.54,0,0,1,80,67.28ZM58.8,31.45c0-.49.13-.62.61-.62,7.12,0,14.23,0,21.35,0h.5V56H58.92c0-.19,0-.36,0-.53Q58.85,43.47,58.8,31.45ZM81.33,28H58.78c.12-.88-.07-1.79.64-2.45a1,1,0,0,1,.62-.29q9.78,0,19.56.08c1.28,0,1.6.19,1.73,1.72C81.36,27.37,81.33,27.66,81.33,28Z"/><path class="cls-1" d="M43.47,64.43a1.24,1.24,0,0,1-1.33-1.12,6.85,6.85,0,0,1-.08-1.2c0-1.68,0-3.37,0-5v-.93H53.17v-3H42.09V16.93H75.76v2.72h2.75c0-.17,0-.3,0-.44,0-1.68,0-3.37,0-5.05a19.92,19.92,0,0,0-.2-2.56,4.07,4.07,0,0,0-3.8-3.18l-24.61,0c-2.33,0-4.66.09-7,.1a4.11,4.11,0,0,0-3.58,3.65c.09,2,0,3.93,0,5.89q0,22.71-.07,45.43a1.3,1.3,0,0,0,0,.52c.7,1.68,1.72,3.17,4,3.21l9.67.09a.48.48,0,0,0,.18,0V64.54l-.5,0ZM42.15,12.34a1.16,1.16,0,0,1,1.36-1.1q9.77-.06,19.55-.09c3.38,0,6.76,0,10.14.06l.42,0c1.79.07,2.14.47,2.09,2.24,0,.43-.16.55-.58.55-3.4,0-6.8,0-10.2,0l-22.18,0H42C42.06,13.44,42.05,12.88,42.15,12.34Z"/><path class="cls-1" d="M30.88,46.23A2.79,2.79,0,0,0,33.62,49a3,3,0,0,0,2.81-2.85,2.84,2.84,0,0,0-2.92-2.7A2.61,2.61,0,0,0,30.88,46.23Z"/><path class="cls-1" d="M70.09,60.27a2.63,2.63,0,0,0-2.7,3,2.61,2.61,0,0,0,2.75,2.57,2.77,2.77,0,0,0,0-5.53Z"/></g></g></svg>