<svg xmlns="http://www.w3.org/2000/svg" viewBox="0 0 73.23 70.97"><defs><style>.cls-1{fill:#0ac;}</style></defs><g id="Layer_2" data-name="Layer 2"><g id="Layer_1-2" data-name="Layer 1"><path class="cls-1" d="M73.23,1.48c0-1-.42-1.48-1.45-1.48H37.39c-1.1,0-1.53.43-1.53,1.52V7.6A31.81,31.81,0,1,0,48.21,66.42,30.8,30.8,0,0,0,61,51.88c3.94-9.26,3.56-18.62-1.14-27.83H71.77c1,0,1.46-.46,1.46-1.44ZM14.54,38.38a2.13,2.13,0,0,1,2.19-2.14H18v8.51h-.3a9.19,9.19,0,0,1-1.7-.15,2,2,0,0,1-1.45-2C14.52,41,14.52,39.65,14.54,38.38Zm37.61,3.51a.49.49,0,0,1,.13.32V43c0,1.32,0,2.69,0,4a3.57,3.57,0,0,1-2.92,3.14l0-.33c-.07-1-.14-2-.2-3a4.57,4.57,0,0,0,3-4.73h0Zm-2.45.77a2.11,2.11,0,0,1-2.09,2.07H46.27V36.2l.35,0a8.15,8.15,0,0,1,1.77.23,1.82,1.82,0,0,1,1.31,1.86C49.73,39.67,49.73,41.1,49.7,42.66Zm-9.39,9.27a.64.64,0,0,1-.5.2c-1.11,0-2.27,0-3.57,0a.56.56,0,0,1-.38-.17.69.69,0,0,1-.18-.47.63.63,0,0,1,.6-.6l.67,0h2.8a.66.66,0,0,1,.72.62A.6.6,0,0,1,40.31,51.93Zm-12.09,4.3c0-.67,0-1.34,0-2v-.7l1.15.42.83.3A1.21,1.21,0,1,0,31,52c-.89-.34-1.77-.67-2.67-1a4.56,4.56,0,0,1-2.63-2.27c-.72-1.42-1.39-2.87-2-4.32a10.59,10.59,0,0,1-.42-5.69c.1-.76.18-1.52.27-2.3l.06-.61h1.54c1.35,0,2.7,0,4,0a2.2,2.2,0,0,0,1.19-.42c.47-.34.92-.71,1.38-1.08l.24-.19c0,.07,0,.13,0,.2.1,1.17.46,1.5,1.62,1.5h2c1.74,0,3.48,0,5.23,0H41s0,.06,0,.1c.07.74.15,1.47.23,2.21s.18,1.61.24,2.42a9,9,0,0,1-.85,4.56L40,46.34c-.3.65-.6,1.3-.89,1.95-.08.17-.09.18-.25.17-.63,0-1.27,0-1.92,0h-.55a3.05,3.05,0,0,0-.29,6.1l.32,0v1.59c0,.93.18,1.21,1,1.54l3.21,1.23A9.32,9.32,0,0,1,24.42,59l.22-.1,1-.44,1.73-.8A1.44,1.44,0,0,0,28.22,56.23Zm10.6-.61c0-.34,0-.68,0-1h.7a3.13,3.13,0,0,0,3.11-1.86c1.49,0,3,0,4.44,0q.22,3,.42,5.92l0,.32-4.79-1.83L38.9,55.68C38.82,55.65,38.8,55.63,38.82,55.62Zm6.35-8.47h.58c.32,0,.64,0,.93,0,.08.95.15,1.91.22,2.9v.22H43.77a6.4,6.4,0,0,0-.76,0c-.31,0-.41,0-.57-.31a3.21,3.21,0,0,0-.82-1l-.13-.12c0-.12.1-.24.16-.36.23-.52.47-1.07.74-1.59a12.62,12.62,0,0,0,1.43-4.7v3.58A1.21,1.21,0,0,0,45.17,47.15ZM38,29.63l1.06-1c.83-.8,1.66-1.6,2.47-2.42.31-.3.6-.63.88-1l0,0c1.65,1.47,3.3,5.85,3.24,8.64h-.57a1.21,1.21,0,0,0-1.34,1.34v4.36c0-.31-.07-.62-.11-.93-.15-1-.25-1.94-.34-2.89l-.11-1a1.24,1.24,0,0,0-1.42-1.28H40.7c-2.09,0-4.17,0-6.25,0h0a10.16,10.16,0,0,0-.09-1.66c0-.09-.16-.89-.7-1.12a1.56,1.56,0,0,0-1.35.21c-.56.42-1.11.86-1.65,1.29s-.91.73-1.38,1.09a1,1,0,0,1-.52.18H22.77c-1,0-1.36.36-1.46,1.3l-.18,1.76c-.18,1.6-.36,3.26-.42,4.91a10.45,10.45,0,0,0,1.42,5.44c.3.56.56,1.16.81,1.74.11.26.21.51.32.76a7.23,7.23,0,0,0,2.4,3,.24.24,0,0,1,.13.26q0,1.55,0,3.09c0,.17,0,.18-.13.22l-1.34.57-1.84.76-4.07,1.61-1.31.51,1-12.12H19c1.06,0,1.47-.41,1.48-1.45V35.92c0-.24,0-.47,0-.71,0-.9-.36-1.3-1.19-1.39l.06-.55c.09-.78.18-1.52.31-2.25a13.15,13.15,0,0,1,2.91-6.22,12,12,0,0,1,7.92-4.1,14.18,14.18,0,0,1,5.34.28l.08,0v.07h0c0,1.85,0,3.71,0,5.57v2.07A1.26,1.26,0,0,0,36.64,30,1.22,1.22,0,0,0,38,29.63ZM35.83,18.49l-.08,0a13.68,13.68,0,0,0-1.45-.22c-5.41-.48-9.68,1-13,4.4A15.49,15.49,0,0,0,17,31.8a14.67,14.67,0,0,0-.18,1.88v.13l-.17,0a4.36,4.36,0,0,0-4.18,2.76,5.05,5.05,0,0,0-.37,1.81c0,1.06,0,2.11,0,3.17v.93a4.58,4.58,0,0,0,3.58,4.56l-.55,6.6q-.28,3.23-.54,6.45a.49.49,0,0,1-.29.48c-.43.26-.84.55-1.24.84l-.19.14A29,29,0,0,1,4.3,28.91,29.32,29.32,0,0,1,35.83,10.09ZM19.64,60.89c.8-.3,1.63-.61,2.43-1l.33.48a16.33,16.33,0,0,0,1.24,1.69A11.77,11.77,0,0,0,42.84,60l.12-.21.21.08,1.24.48c1.38.54,2.77,1.08,4.15,1.65a6.93,6.93,0,0,1,.94.53c-10,7.79-24.66,8-34.61.55A21,21,0,0,1,19.64,60.89Zm29.88-8.23a6,6,0,0,0,2.57-1,5.85,5.85,0,0,0,2.62-4.86c0-1.11,0-2.23,0-3.34v-1a3,3,0,0,0-2.59-3.13c0-.18,0-.37,0-.56a6.54,6.54,0,0,0-.19-1.69,4.33,4.33,0,0,0-3.68-3.2h-.09s0,0,0-.07a16.48,16.48,0,0,0-1.08-5.66,15.45,15.45,0,0,0-2.33-4.08h12.1c.14,0,.16,0,.24.14A29.3,29.3,0,0,1,53,59.47c-.41.44-.84.84-1.26,1.25l-.29.28-.12-.08c-.46-.3-.89-.59-1.28-.81C49.88,57.6,49.7,55.09,49.52,52.66ZM70.81,21.49v.13H43.6a2,2,0,0,0-1.46.59Q40.6,23.75,39,25.27l-.69.68V2.43H70.82v.1q0,7.53,0,15.06Z"/><path class="cls-1" d="M43.23,9h0a1.29,1.29,0,0,0,.39,0H65.31a3.17,3.17,0,0,0,.44,0,1.16,1.16,0,0,0,1.07-1.2,1.13,1.13,0,0,0-1.09-1.19H45.21c-.59,0-1.18,0-1.77,0a1.13,1.13,0,0,0-1.15,1.07A1.16,1.16,0,0,0,43.23,9Z"/><path class="cls-1" d="M65.69,15.66H43.79a4,4,0,0,0-.49,0,1.15,1.15,0,0,0-1,1A1.12,1.12,0,0,0,43.1,18a2.84,2.84,0,0,0,.81.09H65.46l.35,0a1.19,1.19,0,0,0,1-1.25A1.15,1.15,0,0,0,65.69,15.66Z"/><path class="cls-1" d="M65.5,11.14l-1.25,0H57l-12.81,0c-.28,0-.56,0-.84,0a1.13,1.13,0,0,0-1.1,1.11,1.17,1.17,0,0,0,1,1.27,1.45,1.45,0,0,0,.3,0h5l11.69,0h3.12l2.08,0h0a1.21,1.21,0,0,0,1.34-1.18,1.17,1.17,0,0,0-.31-.86A1.39,1.39,0,0,0,65.5,11.14Z"/></g></g></svg>