<svg xmlns="http://www.w3.org/2000/svg" viewBox="0 0 81.79 70"><defs><style>.cls-1{fill:#0ac;}</style></defs><g id="Layer_2" data-name="Layer 2"><g id="Layer_1-2" data-name="Layer 1"><path class="cls-1" d="M81.78,5.8a5.66,5.66,0,0,0-2.16-4.5A5.82,5.82,0,0,0,75.77,0H6.66C6.28,0,5.9,0,5.52,0A5.75,5.75,0,0,0,0,5.78c0,3,0,5.93,0,8.9a1.9,1.9,0,0,0,2.1,2.09H43.63q18,0,36.06,0a2,2,0,0,0,2.1-2C81.78,11.76,81.81,8.78,81.78,5.8Zm-3.84,6.93s0,.11,0,.2H3.83c0-2.44,0-4.81,0-7.18a1.91,1.91,0,0,1,2-1.89H75.76a1.93,1.93,0,0,1,2.17,2.05C78,8.18,77.94,10.46,77.94,12.73Z"/><path class="cls-1" d="M81.78,23a1.92,1.92,0,1,0-3.84,0V64a2,2,0,0,1-2.2,2.2H5.91a2,2,0,0,1-2.08-2v-41a2.3,2.3,0,0,0-.13-.79,1.92,1.92,0,0,0-3.69.8q0,20.51,0,41A5.76,5.76,0,0,0,5.89,70H75.22a10.13,10.13,0,0,0,1.56,0,5.8,5.8,0,0,0,5-5.94V37.83Q81.79,30.44,81.78,23Z"/><path class="cls-1" d="M70.09,30a2,2,0,0,0-2-1.24h-9c-2.28,0-45.46,0-47.75,0a2.74,2.74,0,0,0-1,.16,1.9,1.9,0,0,0-1.13,2.18,2,2,0,0,0,1.95,1.51c1.82,0,44.53,0,46.35,0h5.21c1.84,0,3.67,0,5.51,0A1.91,1.91,0,0,0,70.09,30Z"/><path class="cls-1" d="M9.21,49.15a1.89,1.89,0,0,0,1.94,1.64H59c1.23,0,2.46,0,3.68,0a1.85,1.85,0,0,0,1.82-2A1.88,1.88,0,0,0,62.65,47H11.17a2,2,0,0,0-.54.06A1.91,1.91,0,0,0,9.21,49.15Z"/><path class="cls-1" d="M18.16,60.19a1.88,1.88,0,0,0,1.07-2.09,1.92,1.92,0,0,0-2-1.56q-3,0-6.08,0a2.37,2.37,0,0,0-.94.23,1.86,1.86,0,0,0-1,2,1.91,1.91,0,0,0,1.89,1.57h6.1A2.36,2.36,0,0,0,18.16,60.19Z"/><path class="cls-1" d="M68.12,37.78h-57l-.17,0-.21,0-.25.07-.17,0-.07,0-.07,0c-.06,0-.11.09-.18.13a2.1,2.1,0,0,0-.3.22,1.59,1.59,0,0,0-.15.21,1.19,1.19,0,0,0-.21.29,1.8,1.8,0,0,0-.15.5l0,.09a2.17,2.17,0,0,0,0,.36,1.63,1.63,0,0,0,0,.31,1.85,1.85,0,0,0,.51.9,1.87,1.87,0,0,0,1.38.61H62.74c1.84,0,3.67,0,5.51,0A1.91,1.91,0,0,0,70.09,39,2,2,0,0,0,68.12,37.78Z"/><path class="cls-1" d="M16.6,6.15a2,2,0,1,0,2,2A2,2,0,0,0,16.6,6.15Z"/><path class="cls-1" d="M24,6.16a2,2,0,1,0,2,2A2,2,0,0,0,24,6.16Z"/><path class="cls-1" d="M9.19,6.15a2,2,0,1,0,2,2A2,2,0,0,0,9.19,6.15Z"/></g></g></svg>