<svg xmlns="http://www.w3.org/2000/svg" viewBox="0 0 106.3 70"><defs><style>.cls-1{fill:#0095cb;}</style></defs><g id="Layer_2" data-name="Layer 2"><g id="Layer_1-2" data-name="Layer 1"><path class="cls-1" d="M101.43,21.59q-4.59-7.86-9.19-15.73c-.66-1.14-1.17-1.3-2.4-.92s-2.42.69-3.65,1a11.61,11.61,0,0,1-8.69-1,55.12,55.12,0,0,0-5.12-2.35A19.6,19.6,0,0,0,55,3.42a1.41,1.41,0,0,1-1.66-.1A18.9,18.9,0,0,0,38.26.53a79.15,79.15,0,0,0-8.43,2.78,9.6,9.6,0,0,1-6,.34c-1.75-.48-3.48-1-5.19-1.67-1.39-.51-1.83-.44-2.67.76L.71,24.48c-1,1.46-1,2,.42,3.18L16,40c.54.44,1.06.9,1.62,1.39-2.08,2.41-2.62,5-1.2,7.82s3.95,3.77,7,3.54c.07.38.12.66.17.95a6.51,6.51,0,0,0,7.27,5.53c.77-.09,1,.11,1.14.85a6.57,6.57,0,0,0,7.17,5.26,1.49,1.49,0,0,1,1,.42c3.93,4.24,8.73,5.09,14.09,3.63a5.13,5.13,0,0,1,2.49-.09,10.46,10.46,0,0,0,8.39-1.63,1.65,1.65,0,0,1,1.53-.29,6.54,6.54,0,0,0,8-4.21c.1-.27.19-.54.3-.86a6.37,6.37,0,0,0,.89.31A13,13,0,0,0,79,63a6.29,6.29,0,0,0,5.69-5.21c.14-.55.35-.68.9-.61a7.92,7.92,0,0,0,2.28,0,6.26,6.26,0,0,0,5.22-4.42,6.34,6.34,0,0,0-1.53-6.68c-.85-.91-1.75-1.78-2.7-2.74.35-.27.59-.47.85-.65l15.46-10.76c1.3-.91,1.41-1.47.59-2.87ZM24.72,48.66a3.55,3.55,0,0,1-5-5c1-1.08,2.08-2.15,3.17-3.16a3.56,3.56,0,0,1,6,2.39,3.66,3.66,0,0,1-1.05,2.73C26.76,46.65,25.76,47.67,24.72,48.66Zm7.86,6.5a10.56,10.56,0,0,1-2.39,1.3l-.12-.23a3.57,3.57,0,0,1-3.25-2.18,3.45,3.45,0,0,1,.75-3.9c1-1,2-2,3-3,1.27-1.26,2.52-2.55,3.81-3.78a3.55,3.55,0,1,1,5,5C37.15,50.68,34.91,53,32.58,55.16Zm6.28,7.14c-1.93-.09-3-.75-3.67-2.11a3.2,3.2,0,0,1,.49-3.71C38,54,40.46,51.56,43,49.2a3.53,3.53,0,0,1,4.94,5q-3.49,3.66-7.17,7.14A5.94,5.94,0,0,1,38.86,62.3Zm12.2,3.59.68.93a9.68,9.68,0,0,1-6.88-1.15,15.71,15.71,0,0,1-1.74-1.33c-.35-.28-.44-.55,0-.93,2.25-2.23,4.47-4.48,6.73-6.69a.9.9,0,0,1,.86,0,2.47,2.47,0,0,1,.79,3.66c-.29.54-.6,1.07-.84,1.64A3.75,3.75,0,0,0,51.06,65.89ZM89,47.71a3.88,3.88,0,0,1,1.37,3.61,3.54,3.54,0,0,1-6,1.89c-2.84-2.8-5.65-5.63-8.48-8.45l-7-7-.31-.31a1.6,1.6,0,0,0-2.22-.09,1.58,1.58,0,0,0,.06,2.22c1.1,1.14,2.24,2.25,3.36,3.37,3.61,3.61,7.23,7.21,10.82,10.84A3.59,3.59,0,0,1,81,58.69a3.52,3.52,0,0,1-5.29.24C72.3,55.55,68.9,52.14,65.5,48.74l-1.62-1.62a1.64,1.64,0,0,0-2.35-.21,1.61,1.61,0,0,0,.19,2.34c3,3,5.92,6,8.91,8.9a3.72,3.72,0,0,1,1.16,3.91A3.51,3.51,0,0,1,66,63.6c-1.83-1.69-3.55-3.51-5.32-5.26-.19-.19-.37-.39-.56-.56a1.54,1.54,0,0,0-2.21,0A1.5,1.5,0,0,0,58,59.92c1.48,1.51,3,3,4.48,4.49l.8.85a14.27,14.27,0,0,1-1.62.76,7.53,7.53,0,0,1-7.46-1.26c-1-.8-1.07-1.12-.49-2.23.19-.37.4-.72.58-1.09,1.21-2.46,1.06-4.38-.91-6.25a4.85,4.85,0,0,1-1.67-3.88,6.34,6.34,0,0,0-7.1-6c-.77.09-1.09,0-1.29-.85A6.55,6.55,0,0,0,32.44,41c-.2.17-.4.32-.67.53-.14-.32-.25-.55-.35-.79a6.56,6.56,0,0,0-10.8-2.29c-.62.6-1,.65-1.65.09Q11.7,32.4,4.34,26.38c-.59-.48-.71-.81-.23-1.49q6.78-9.54,13.48-19.14a1,1,0,0,1,1.31-.41c1.5.5,3,.92,4.56,1.34,2.95.81,5.74.14,8.5-.93a35.07,35.07,0,0,1,8.83-2.63A16.63,16.63,0,0,1,51,5.45a2.49,2.49,0,0,1,.26.28,3.73,3.73,0,0,1-.35.41c-4.77,4-7.77,9.26-10.21,14.89a19.78,19.78,0,0,0-1.91,7.19c-.14,4.29,3,6.67,7.17,5.44A9.47,9.47,0,0,0,50.26,31c2-2.07,3.75-4.28,5.68-6.37a38.8,38.8,0,0,1,3.94-3.75c1.19-1,1.4-.84,2.49.25Q75.66,34.43,89,47.71Zm13-17.29-9.75,6.79c-1.62,1.12-3.25,2.21-4.84,3.37-.59.44-.94.4-1.47-.13q-11-11.07-22.08-22.1c-1.55-1.54-2.09-1.67-4.13-.83a14.73,14.73,0,0,0-5.33,4.22c-1.84,2.09-3.6,4.26-5.48,6.32a16.28,16.28,0,0,1-2.65,2.15,4.07,4.07,0,0,1-1.46.58c-2.08.49-3.27-.56-3-2.68A27.42,27.42,0,0,1,45,18.94,31.29,31.29,0,0,1,53.37,8.07,18.49,18.49,0,0,1,65.07,4C68,3.92,71,5.18,74,6.57c1.78.82,3.57,1.63,5.4,2.34a11.76,11.76,0,0,0,6.09.22,34.94,34.94,0,0,0,3.78-.84.86.86,0,0,1,1.15.43q6,10.32,12,20.59C102.79,29.94,102.41,30.15,102,30.42Z"/></g></g></svg>