<svg xmlns="http://www.w3.org/2000/svg" viewBox="0 0 80 80"><defs><style>.cls-1{fill:#00acf2;}.cls-2{fill:#fff;}</style></defs><g id="Layer_2" data-name="Layer 2"><g id="Layer_1-2" data-name="Layer 1"><circle class="cls-1" cx="40" cy="40" r="40"/><path class="cls-2" d="M20.63,61.46H51.16V47.09a6.64,6.64,0,0,0,0-.77,5.44,5.44,0,0,0-5.28-4.76H43.66a.36.36,0,0,0-.37.22c-1.57,2.8-3.16,5.6-4.73,8.4-.2.34-.39.68-.62,1.09-.43-2.38-.86-4.68-1.29-7,.28,0,.52,0,.76,0a.6.6,0,0,0,.64-.64V42.27c0-.49-.21-.71-.7-.71h-3c-.45,0-.66.2-.66.65s0,.92,0,1.38a.58.58,0,0,0,.67.67h.7l-1.27,7-.18-.3-5.19-9.18a.34.34,0,0,0-.36-.22c-.46,0-.92,0-1.38,0a10.33,10.33,0,0,0-1.67.09,5.42,5.42,0,0,0-4.44,5.4c0,4.72,0,9.44,0,14.15C20.62,61.3,20.63,61.38,20.63,61.46Z"/><path class="cls-2" d="M35.83,40.22A9,9,0,1,0,27,31.1,9,9,0,0,0,35.83,40.22Z"/><path class="cls-2" d="M44.51,35.12l.2,0a6.43,6.43,0,0,1,3.75.41A6.64,6.64,0,0,1,51.53,45a.57.57,0,0,0-.07.46,11.07,11.07,0,0,1,.2,1.61c0,1.35.05,2.7,0,4.05a1.73,1.73,0,0,0,.63,1.49,1.05,1.05,0,0,0,1.55,0l3-3a1.05,1.05,0,0,0,0-1.59c-.27-.28-.55-.56-.84-.83a.25.25,0,0,1-.05-.34c.25-.57.49-1.15.72-1.72,0-.09.07-.19.1-.28h1.42a1,1,0,0,0,1.07-1.07c0-1.44,0-2.89,0-4.33a1,1,0,0,0-1.08-1.07H56.91a.23.23,0,0,1-.25-.18c-.24-.62-.49-1.23-.76-1.84A.24.24,0,0,1,56,36l.83-.83a1.07,1.07,0,0,0,0-1.64l-2.9-2.93a1.07,1.07,0,0,0-1.68,0c-.31.32-.63.62-.91.9l-2-.81a.32.32,0,0,1-.12-.21c0-.42,0-.83,0-1.25A1,1,0,0,0,48,28.14H44.84A9.83,9.83,0,0,1,44.51,35.12Z"/><path class="cls-2" d="M47.05,22.76c.48.14.42.15.53.62a.74.74,0,0,1-.53,1,.45.45,0,0,0-.22.67c.31.62.64,1.25,1,1.86a.48.48,0,0,0,.68.22c.16-.08.31-.18.48-.26a.3.3,0,0,1,.21,0c.26.21.51.43.78.67-.05.18-.12.36-.17.54a.53.53,0,0,0,.4.77l1.76.54c.45.14.69,0,.78-.41s.25-.66.72-.59c.18,0,.42-.11.55,0s.21.32.31.5a.52.52,0,0,0,.82.25l1.58-.85c.48-.25.54-.46.28-.94s-.19-.41.08-.81a.71.71,0,0,1,1-.32.45.45,0,0,0,.64-.33c.21-.66.41-1.32.6-2A.49.49,0,0,0,59,23.2L58.37,23a2.78,2.78,0,0,0,0-.51.67.67,0,0,1,.47-.92c.38-.15.43-.44.24-.8l-.86-1.64c-.23-.43-.44-.5-.87-.27s-.46.21-.91-.1a.68.68,0,0,1-.28-1c.16-.38,0-.62-.39-.74L54,16.54c-.5-.16-.68-.08-.84.42s-.18.46-.7.57a.65.65,0,0,1-.87-.47c-.16-.39-.44-.45-.82-.25l-1.6.87c-.43.24-.53.46-.27.87a.66.66,0,0,1-.09.93c-.29.36-.52.46-.94.28s-.64,0-.76.4c-.18.58-.35,1.16-.53,1.74S46.55,22.61,47.05,22.76Zm5.89-3A3.17,3.17,0,1,1,49.81,23,3.15,3.15,0,0,1,52.94,19.79Z"/></g></g></svg>