<svg xmlns="http://www.w3.org/2000/svg" viewBox="0 0 80 80"><defs><style>.cls-1{fill:#00acf2;}.cls-2{fill:#fff;}</style></defs><g id="Layer_2" data-name="Layer 2"><g id="Layer_1-2" data-name="Layer 1"><circle class="cls-1" cx="40" cy="40" r="40"/><path class="cls-2" d="M53.11,51.07a4,4,0,0,0,2.85-2A4.16,4.16,0,0,0,56.49,47V18.31a.74.74,0,0,0-.82-.81h-8c-6,0-11.93,0-17.9,0a6.2,6.2,0,0,0-3.39.94,6.12,6.12,0,0,0-2.06,2.17,6.25,6.25,0,0,0-.78,3.14v9.73c0,1.45,0,2.9,0,4.34,0,1.75,0,3.49,0,5.23,0,3,0,6,0,9a6.84,6.84,0,0,0,.41,2.61,6,6,0,0,0,2.22,2.81,6.09,6.09,0,0,0,3.61,1.08c1.94,0,3.88,0,5.81,0,.16,0,.21,0,.2.21v3a.72.72,0,0,0,.4.69.73.73,0,0,0,.81-.1l3.1-2.23a.19.19,0,0,1,.19,0l2.49,1.8.61.44a.71.71,0,0,0,.81.08.7.7,0,0,0,.39-.7c0-1,0-2,0-3v-.23h11.2a.7.7,0,0,0,.72-.74,4,4,0,0,0-1.63-3.22A4,4,0,0,0,53,53.75s0,0,0-.08c0-.81,0-1.63,0-2.44C52.93,51.09,53,51.09,53.11,51.07ZM55,19V46.33H30.55L30.34,19ZM25,23.26a4.62,4.62,0,0,1,3.64-4.19l.23,0,.2,27.34A6.12,6.12,0,0,0,25,48.46v-7Q25,34.24,25,27C25,25.74,25,24.5,25,23.26ZM43.08,60.31l-.58-.41-1.83-1.33a.75.75,0,0,0-1,0l-2.22,1.61-.2.13V54.46h5.84Zm1.26-7.11a.83.83,0,0,0-.51-.21c-1.69,0-3.37,0-5.06,0H36.66c-.58,0-.8.17-.92.74H31.11a1.33,1.33,0,0,1-1.3-1.12,1.31,1.31,0,0,1,1-1.44,1.69,1.69,0,0,1,.38,0H51.46v2.58H44.63A2.27,2.27,0,0,0,44.34,53.2Zm10.53,3.72a.81.81,0,0,1,0,.11H44.58V55.19h7.83A2.59,2.59,0,0,1,54.87,56.92Zm-2.43-7.26H31.18a2.69,2.69,0,0,0-2.54,1.53,2.75,2.75,0,0,0,2.55,4h4.56V57l-.15,0c-2.06,0-4.12,0-6.17,0a4.31,4.31,0,0,1-3.69-2.09,4.36,4.36,0,0,1-.2-4.66,4.56,4.56,0,0,1,2.3-2.07,5.34,5.34,0,0,1,2.13-.4H54.9a2.1,2.1,0,0,1-.47.9A2.5,2.5,0,0,1,52.44,49.66Z"/><path class="cls-2" d="M36.43,36.16a3.72,3.72,0,0,0,2.43-.36A3.85,3.85,0,0,0,41,32.4c0-.56-.27-.85-.84-.85A.22.22,0,0,1,40,31.4c-.44-1-.89-2-1.34-3-.12-.28-.24-.56-.37-.84H42v8.94a.24.24,0,0,1-.19.27,2.4,2.4,0,0,0-1.39,1.45,4.22,4.22,0,0,0-.15,1.5v.23H37.61A.73.73,0,0,0,37,41.1a.81.81,0,0,0,.71.27h8.55c.51,0,1,0,1.52,0a.74.74,0,0,0,.71-1.07.69.69,0,0,0-.69-.4H45.19c0-.31,0-.59,0-.87a2.43,2.43,0,0,0-1.6-2.33c-.09,0-.13-.06-.13-.17V27.7c0-.06,0-.12,0-.18h3.74a.75.75,0,0,1-.07.18c-.53,1.21-1.07,2.41-1.59,3.62a.32.32,0,0,1-.34.24.72.72,0,0,0-.78.78,3.68,3.68,0,0,0,.65,2.11,3.88,3.88,0,0,0,5.1,1.31,3.75,3.75,0,0,0,2.09-3.33c0-.6-.24-.87-.85-.88a.2.2,0,0,1-.22-.15c-.46-1-.93-2.09-1.39-3.14-.11-.24-.21-.49-.32-.76.21,0,.39,0,.58,0a.72.72,0,0,0,.66-.5A.73.73,0,0,0,50,26H43.46c0-.19,0-.35,0-.51a.73.73,0,0,0-.72-.76.74.74,0,0,0-.74.75c0,.16,0,.33,0,.52H35.45a.73.73,0,1,0,0,1.46c.17,0,.34,0,.54,0-.06.15-.12.27-.17.38-.48,1.1-1,2.19-1.43,3.29-.12.28-.25.43-.58.41a.63.63,0,0,0-.6.61,4.1,4.1,0,0,0,.06.86A3.91,3.91,0,0,0,36.43,36.16ZM50.68,33A2.42,2.42,0,0,1,46,33Zm-1-1.49H47.05l1.31-2.95ZM43,38a1,1,0,0,1,.74.86c0,.33,0,.65,0,1h-2c.06-.48-.12-1,.17-1.41A1,1,0,0,1,43,38Zm-5.87-9.45,1.29,2.95H35.81ZM39.43,33a2.42,2.42,0,0,1-2.29,1.72A2.46,2.46,0,0,1,34.78,33Z"/></g></g></svg>