<svg xmlns="http://www.w3.org/2000/svg" viewBox="0 0 80 80"><defs><style>.cls-1{fill:#00acf2;}.cls-2{fill:#fff;}</style></defs><g id="Layer_2" data-name="Layer 2"><g id="Layer_1-2" data-name="Layer 1"><circle class="cls-1" cx="40" cy="40" r="40"/><path class="cls-2" d="M56.17,40.77v0Z"/><path class="cls-2" d="M57.13,37.9a.54.54,0,0,0,.28,0A.54.54,0,0,1,57.13,37.9Z"/><path class="cls-2" d="M49.12,30.16a6.32,6.32,0,1,0-6.3-6.32A6.32,6.32,0,0,0,49.12,30.16Zm0-11.23a4.92,4.92,0,1,1-4.92,4.91A4.93,4.93,0,0,1,49.15,18.93Z"/><path class="cls-2" d="M58.29,31.37c-.21.45-.32,1-.67,1.31s-1,.19-1.46.34a1,1,0,0,0-.63.49,1.08,1.08,0,0,0,.23.78c.23.31.56.55.8.86a.91.91,0,0,1,.19.61c0,.06,0,.11,0,.17,0,.39-.13.78-.2,1.17a.73.73,0,0,0,.59.8.54.54,0,0,0,.28,0,.93.93,0,0,0,.19-.11,2.06,2.06,0,0,1,2.78,0,.81.81,0,0,0,.75-.06,1,1,0,0,0,.26-.72c0-.42-.15-.84-.19-1.26a.92.92,0,0,1,.18-.57c.25-.32.6-.57.83-.9a1,1,0,0,0,.21-.77c-.07-.22-.39-.39-.64-.49a3.09,3.09,0,0,0-.86-.13.82.82,0,0,1-.84-.61,2.67,2.67,0,0,0-.43-.9,1.31,1.31,0,0,0-.66-.48C58.65,30.81,58.43,31.07,58.29,31.37ZM59,33.29a1.22,1.22,0,0,0,1.3.9,3.44,3.44,0,0,0-.53.74,3.44,3.44,0,0,0,0,.92,1.15,1.15,0,0,0-1.53,0,1.33,1.33,0,0,0-.6-1.62C58.31,34.18,58.78,34,59,33.29Z"/><path class="cls-2" d="M56.54,37.1c.07-.39.16-.78.2-1.17,0,.39-.13.78-.2,1.17a.73.73,0,0,0,.59.8A.73.73,0,0,1,56.54,37.1Z"/><path class="cls-2" d="M37.2,43.13a.61.61,0,0,0,.54.69,1.16,1.16,0,0,0,.74-.31c.12-.1.12-.38.12-.57V34.6a5.43,5.43,0,0,1,4.25-5.33l.63-.14a8.51,8.51,0,0,1-.68-.9c-.18-.31-.37-.32-.68-.23a6.84,6.84,0,0,0-4.92,6.58c0,2,0,4,0,5.92C37.19,41.38,37.19,42.26,37.2,43.13Z"/><path class="cls-2" d="M55.48,47A3.52,3.52,0,1,0,59,50.55,3.51,3.51,0,0,0,55.48,47Zm0,5.62a2.11,2.11,0,1,1,2.1-2.09A2.11,2.11,0,0,1,55.47,52.65Z"/><path class="cls-2" d="M40,47a3.52,3.52,0,1,0,3.51,3.51A3.51,3.51,0,0,0,40,47Zm0,5.62a2.11,2.11,0,1,1,2.08-2.11A2.11,2.11,0,0,1,40,52.65Z"/><path class="cls-2" d="M24.55,47a3.52,3.52,0,1,0,3.51,3.52A3.5,3.5,0,0,0,24.55,47Zm0,5.62a2.11,2.11,0,1,1,2.06-2.13A2.11,2.11,0,0,1,24.59,52.65Z"/><path class="cls-2" d="M21,36.49A3.51,3.51,0,1,0,24.55,33,3.5,3.5,0,0,0,21,36.49Zm5.61,0a2.11,2.11,0,0,1-4.21,0,2.11,2.11,0,1,1,4.21,0Z"/><path class="cls-2" d="M24.54,24.54A3.51,3.51,0,1,0,21,21,3.5,3.5,0,0,0,24.54,24.54Zm0-5.61A2.1,2.1,0,1,1,22.44,21,2.1,2.1,0,0,1,24.57,18.93Z"/><path class="cls-2" d="M59.77,53l-.86,1.13a2.91,2.91,0,0,1,2.18,3.18c0,1.46,0,2.92,0,4.38,0,.53.27.83.71.82s.69-.3.69-.83c0-1.65,0-3.3,0-4.95A4.05,4.05,0,0,0,59.77,53Z"/><path class="cls-2" d="M18.25,48.43a.68.68,0,0,0,.67-.67c0-.12,0-.24,0-.35,0-1.55,0-3.1,0-4.65a2.76,2.76,0,0,1,1.79-2.57l.38-.14-.9-1.17a4,4,0,0,0-2.64,3.44c-.12,1.81-.05,3.63,0,5.44A.66.66,0,0,0,18.25,48.43Z"/><path class="cls-2" d="M29.15,23.55a.41.41,0,0,0-.39,0,11.88,11.88,0,0,0-.76,1,2.9,2.9,0,0,1,2.17,3.21c0,1.47,0,2.93,0,4.39a.7.7,0,1,0,1.4,0c0-1.68.05-3.37,0-5A4,4,0,0,0,29.15,23.55Z"/><path class="cls-2" d="M18.23,33a.68.68,0,0,0,.69-.69c0-.12,0-.24,0-.35v-4.3a4.2,4.2,0,0,1,.05-.79,2.81,2.81,0,0,1,2.14-2.24,7.91,7.91,0,0,1-.67-.88c-.17-.31-.34-.28-.59-.14a3.94,3.94,0,0,0-2.3,3.35c-.1,1.78,0,3.56,0,5.35A.66.66,0,0,0,18.23,33Z"/><path class="cls-2" d="M17.78,55.41a3.74,3.74,0,0,0-.24,1.24q0,2.52,0,5a1,1,0,0,0,.4.7.79.79,0,0,0,.71-.08,1,1,0,0,0,.27-.69c0-1.59,0-3.18,0-4.78a2.76,2.76,0,0,1,1.86-2.61l.32-.13-.9-1.16A4.12,4.12,0,0,0,17.78,55.41Z"/><path class="cls-2" d="M31.49,56a4.16,4.16,0,0,0-2.61-3.05L28,54.1a2.89,2.89,0,0,1,2.18,3.14v4.34c0,.6.25.91.72.9s.68-.31.68-.88c0-1.59,0-3.19,0-4.78A3.83,3.83,0,0,0,31.49,56Z"/><path class="cls-2" d="M35.35,53.08A4.06,4.06,0,0,0,33,56.76c0,1.62,0,3.24,0,4.86,0,.56.26.87.71.86s.69-.31.7-.87c0-1.5,0-3,0-4.48a4.53,4.53,0,0,1,0-.74,2.83,2.83,0,0,1,2.15-2.28,9,9,0,0,1-.67-.88C35.75,53,35.61,52.94,35.35,53.08Z"/><path class="cls-2" d="M44.62,53.07a.47.47,0,0,0-.43.06c-.26.29-.48.62-.74,1a2.89,2.89,0,0,1,2.18,3.21c0,1.46,0,2.93,0,4.39a.7.7,0,1,0,1.4,0c0-1.7,0-3.4,0-5.09A4,4,0,0,0,44.62,53.07Z"/><path class="cls-2" d="M48.44,56.72c0,1.29,0,2.57,0,3.86,0,.41,0,.82,0,1.23a.67.67,0,0,0,.71.67.68.68,0,0,0,.68-.67c0-.11,0-.23,0-.35,0-1.56,0-3.13,0-4.69a2.66,2.66,0,0,1,1.67-2.47c.15-.07.32-.13.5-.2L51.15,53A4.11,4.11,0,0,0,48.44,56.72Z"/><path class="cls-2" d="M31.4,41.65a4,4,0,0,0-2.52-2.77L28,40l.18.09a2.78,2.78,0,0,1,2,2.92v4.43c0,.64.24,1,.71,1s.69-.32.7-.92c0-1.38,0-2.75,0-4.13A7.64,7.64,0,0,0,31.4,41.65Z"/><path class="cls-2" d="M59.7,39.13c0,.07,0,.17,0,.27V43c0,.55.26.87.7.87s.71-.31.71-.86V39.63c0-.11,0-.22,0-.28Z"/><path class="cls-2" d="M43.52,40.38a.7.7,0,1,0-1.4,0c0,.93,0,1.87,0,2.8a.68.68,0,0,0,.69.7.67.67,0,0,0,.7-.68c0-.48,0-1,0-1.45h0C43.52,41.28,43.53,40.83,43.52,40.38Z"/><path class="cls-2" d="M56.17,41.78V40.43a.71.71,0,0,0-.71-.78.69.69,0,0,0-.69.75c0,.9,0,1.81,0,2.71a.69.69,0,0,0,.68.75.71.71,0,0,0,.72-.76V41.78Z"/><path class="cls-2" d="M57.43,30.05l1.27-.65A6.79,6.79,0,0,0,56,28a.43.43,0,0,0-.34.08c-.27.34-.52.7-.75,1Z"/></g></g></svg>