<svg xmlns="http://www.w3.org/2000/svg" viewBox="0 0 120 120"><defs><style>.cls-1{fill:#d4f1fb;}.cls-2{fill:#0071bc;}</style></defs><g id="Layer_2" data-name="Layer 2"><g id="Layer_1-2" data-name="Layer 1"><rect class="cls-1" width="120" height="120" rx="10"/><path class="cls-2" d="M54.71,102.45a.47.47,0,0,1-.3-.1L23.89,80.16a.52.52,0,0,1-.17-.59L38.1,42.91a.65.65,0,0,1,.16-.21l31.84-25a.49.49,0,0,1,.37-.1.5.5,0,0,1,.34.2L94.68,50.62a.46.46,0,0,1,.1.26l1.53,24.6a.53.53,0,0,1-.1.35L82.63,93a.56.56,0,0,1-.24.16l-27.52,9.27ZM24.79,79.57l30,21.82,27.14-9.14L95.3,75.36,93.79,51.09,70.31,18.77,39,43.41Z"/></g></g></svg>