<svg xmlns="http://www.w3.org/2000/svg" viewBox="0 0 120 120"><defs><style>.cls-1{fill:#d4f1fb;}.cls-2{fill:#0071bc;}</style></defs><g id="Layer_2" data-name="Layer 2"><g id="Layer_1-2" data-name="Layer 1"><rect class="cls-1" width="120" height="120" rx="10"/><path class="cls-2" d="M54.71,102.45a.57.57,0,0,1-.18,0L11.1,86.24a.5.5,0,0,1-.31-.61L24.71,37.28a.48.48,0,0,1,.21-.29L71.38,8.52a.49.49,0,0,1,.64.1l29.42,34.19a.53.53,0,0,1,.12.3l1.54,33.11a.48.48,0,0,1-.1.33L89.42,93.71a.53.53,0,0,1-.28.18l-34.31,8.54Zm-42.83-17,42.86,16,34-8.47L102.1,76.08l-1.53-32.75-29-33.74L25.61,37.74Z"/></g></g></svg>