<svg xmlns="http://www.w3.org/2000/svg" viewBox="0 0 62 62"><defs><style>.cls-1{opacity:0.5;}.cls-2{fill:#f9f9f9;}.cls-3{fill:#fff;}</style></defs><g id="Layer_2" data-name="Layer 2"><g id="Layer_1-2" data-name="Layer 1"><g class="cls-1"><path class="cls-2" d="M51,62H11A11,11,0,0,1,0,51V11A11,11,0,0,1,11,0H51A11,11,0,0,1,62,11V51A11,11,0,0,1,51,62ZM11,2a9,9,0,0,0-9,9V51a9,9,0,0,0,9,9H51a9,9,0,0,0,9-9V11a9,9,0,0,0-9-9Z"/><path class="cls-3" d="M21.69,19.8a9.75,9.75,0,0,1,5,1.12,6.32,6.32,0,0,1,2.69,3.63,22.67,22.67,0,0,1,.81,6.74A22.59,22.59,0,0,1,29.42,38a6.31,6.31,0,0,1-2.69,3.64,9.86,9.86,0,0,1-5,1.11,9.86,9.86,0,0,1-5-1.11A6.2,6.2,0,0,1,14,38a22.64,22.64,0,0,1-.8-6.73,22.71,22.71,0,0,1,.8-6.74,6.21,6.21,0,0,1,2.67-3.63A9.75,9.75,0,0,1,21.69,19.8Zm0,3.84A4,4,0,0,0,19.9,24a2.52,2.52,0,0,0-1.12,1.18,7.24,7.24,0,0,0-.6,2.33A35.27,35.27,0,0,0,18,31.29a35.4,35.4,0,0,0,.17,3.77,7.23,7.23,0,0,0,.6,2.34,2.48,2.48,0,0,0,1.12,1.18,3.83,3.83,0,0,0,1.76.35,4,4,0,0,0,1.8-.35,2.6,2.6,0,0,0,1.16-1.18,7,7,0,0,0,.6-2.34,32.63,32.63,0,0,0,.18-3.77,32.53,32.53,0,0,0-.18-3.79,7,7,0,0,0-.6-2.33A2.65,2.65,0,0,0,23.46,24,4.15,4.15,0,0,0,21.66,23.64Z"/><path class="cls-3" d="M40.89,19.86a17.6,17.6,0,0,1,4,.4,4.71,4.71,0,0,1,2.59,1.52A5,5,0,0,1,48.38,25a8.14,8.14,0,0,1-.31,2.32A7.51,7.51,0,0,1,47,29.56a23.36,23.36,0,0,1-2.25,2.72l-5.79,6c.53-.08,1.07-.14,1.61-.17S41.65,38,42.2,38H49v4.29H33.21V39.7a3.38,3.38,0,0,1,.16-1.07,2.66,2.66,0,0,1,.51-.91l5.5-5.89a26.25,26.25,0,0,0,3-3.58,4.89,4.89,0,0,0,1-2.72,1.5,1.5,0,0,0-.36-1,1.81,1.81,0,0,0-1-.41,11.15,11.15,0,0,0-1.67-.1l-2.09,0c-.65,0-1.35,0-2.08.08s-1.6.1-2.58.19l-.19-3.65c1.05-.23,2-.4,2.83-.51s1.65-.18,2.4-.21S40.14,19.86,40.89,19.86Z"/></g></g></g></svg>