<svg xmlns="http://www.w3.org/2000/svg" viewBox="0 0 81 81"><defs><style>.cls-1{fill:#00abed;}</style></defs><g id="Layer_2" data-name="Layer 2"><g id="Layer_1-2" data-name="Layer 1"><path class="cls-1" d="M60.5,81h-40A20.53,20.53,0,0,1,0,60.5v-40A20.53,20.53,0,0,1,20.5,0h40A20.53,20.53,0,0,1,81,20.5v40A20.53,20.53,0,0,1,60.5,81ZM20.5,1A19.53,19.53,0,0,0,1,20.5v40A19.53,19.53,0,0,0,20.5,80h40A19.53,19.53,0,0,0,80,60.5v-40A19.53,19.53,0,0,0,60.5,1Z"/><path class="cls-1" d="M47.68,38.16a4.83,4.83,0,0,0,3.42-1.42,4.83,4.83,0,0,0,0-6.84,4.84,4.84,0,1,0-3.42,8.26Zm-2.49-4.84a2.45,2.45,0,0,1,.73-1.77,2.56,2.56,0,0,1,3.53,0,2.51,2.51,0,0,1,0,3.54,2.56,2.56,0,0,1-3.53,0A2.46,2.46,0,0,1,45.19,33.32Z"/><path class="cls-1" d="M63.29,18.9a1.14,1.14,0,0,0-.34-.85,1.1,1.1,0,0,0-.85-.34,37.31,37.31,0,0,0-12.79,3.17A44.73,44.73,0,0,0,37.4,28.4c-3.86-2-11.65-2.79-17.61,6.46a1.19,1.19,0,0,0,0,1.24,1.19,1.19,0,0,0,1.12.56c1.57-.17,6-.22,8.11,1.27-.84,1.24-1.64,2.53-2.38,3.86a1.13,1.13,0,0,0-.15.57,1.17,1.17,0,0,0,.34.83l.4.4-2,4.55a1.27,1.27,0,0,0-.09.47,1.17,1.17,0,0,0,.34.83l6.09,6.09a1.18,1.18,0,0,0,1.3.25l4.56-2,.39.4a1.18,1.18,0,0,0,1.41.19c1.31-.73,2.6-1.53,3.83-2.37,1.41,2.21,1.35,6.48,1.2,8a1.18,1.18,0,0,0,.55,1.12,1.23,1.23,0,0,0,.62.17,1.19,1.19,0,0,0,.63-.19c9.13-5.88,8.44-13.64,6.52-17.48C63,31.71,63.29,19,63.29,18.9ZM35.35,30.08a49.52,49.52,0,0,0-5.09,5.86c-2.06-1.36-5.09-1.66-7.14-1.7C27.82,28.42,32.9,29.2,35.35,30.08Zm25.5-9.92A42.1,42.1,0,0,1,45.09,47.58l-.08.07a50.52,50.52,0,0,1-6.17,4.24l-9.73-9.72C39.87,23.78,56.53,20.66,60.85,20.16ZM46.19,49.7l.57-.46.92-.77c1.13-1,2.18-1.94,3.14-2.92.89,2.46,1.66,7.53-4.16,12.24,0-2.06-.34-5.09-1.7-7.15C45.38,50.33,45.79,50,46.19,49.7ZM35.64,52l-3,1.3-5-5,1.31-3Z"/><path class="cls-1" d="M27,55.19a1.21,1.21,0,0,0-.35-.83,1.15,1.15,0,0,0-.82-.34h0a1.15,1.15,0,0,0-.82.34L18.74,60.6a1.19,1.19,0,0,0-.34.83,1.16,1.16,0,0,0,1.17,1.17h0a1.17,1.17,0,0,0,.83-.34L26.64,56A1.2,1.2,0,0,0,27,55.19Z"/><path class="cls-1" d="M19.7,57.76l4.35-4.34a1.17,1.17,0,0,0,0-1.65,1.14,1.14,0,0,0-.83-.35h0a1.14,1.14,0,0,0-.83.35l-4.34,4.34a1.17,1.17,0,0,0,0,1.65,1.18,1.18,0,0,0,.83.35A1.14,1.14,0,0,0,19.7,57.76Z"/><path class="cls-1" d="M28.41,56.61h0a1.17,1.17,0,0,0-.83.34L23.24,61.3a1.15,1.15,0,0,0,0,1.65,1.15,1.15,0,0,0,1.65,0l4.35-4.34a1.17,1.17,0,0,0-.83-2Z"/></g></g></svg>