<svg xmlns="http://www.w3.org/2000/svg" viewBox="0 0 281.15 209.47"><defs><style>.cls-1{fill:#6e5a8a;}.cls-2{fill:#fff;}</style></defs><g id="Layer_2" data-name="Layer 2"><g id="Layer_1-2" data-name="Layer 1"><path class="cls-1" d="M140.29,209.47A104.26,104.26,0,0,1,51.55,160.4a8.67,8.67,0,1,1,14.69-9.23,87.4,87.4,0,0,0,161.44-46.43V96.06h44.79a8.68,8.68,0,1,1,0,17.35h-27.8A104.87,104.87,0,0,1,140.29,209.47Z"/><path class="cls-1" d="M52.9,113.41H8.67a8.68,8.68,0,0,1,0-17.35H35.91A104.74,104.74,0,0,1,227.13,46.17a8.67,8.67,0,1,1-14.37,9.71A87.4,87.4,0,0,0,52.9,104.74Z"/><circle class="cls-2" cx="141.08" cy="104.74" r="83.08"/><path class="cls-1" d="M137.68,92.51c0,13-4.67,23.9-19.08,23.9-14.16,0-19-10.82-19-23.62,0-12.49,5-23.67,19.19-23.67C132.37,69.12,137.68,79.25,137.68,92.51Zm-24.34.09c0,9.53.76,14.44,5.4,14.44s5.16-4.82,5.16-14.41c0-9.86-.8-14.15-5.11-14.15C114.66,78.48,113.34,82.24,113.34,92.6Z"/><path class="cls-1" d="M164.1,115.53V106H143.77V96.29L161.06,70h15.55V96.25h5.27l-1.07,9.7h-4.2v9.58Zm0-25c0-4.31,0-7.09.23-10-1.56,3.57-5.69,10.26-9.13,15.71h8.9Z"/><path class="cls-1" d="M117.54,144.92c.26,1.38,1.23,2,2.73,2s2-.5,2-1.41-.7-1.44-3.2-2c-4.68-1.13-5.61-2.84-5.61-5,0-2.66,2-4.89,6.37-4.89,4.58,0,6.45,2.33,6.67,4.83h-4.48c-.12-.85-.56-1.72-2.21-1.72-1.06,0-1.71.41-1.71,1.26s.58,1.2,3,1.79c4.88,1.22,5.85,3,5.85,5.24,0,3-2.29,5-6.94,5-4.39,0-6.71-2-7.06-5.09Z"/><path class="cls-1" d="M132.41,137.31h-4.52v-3.44h13.66v3.44h-4.49v12.4h-4.65Z"/><path class="cls-1" d="M155.16,143.3H148v3H156l-.52,3.44h-12V133.87h12v3.44H148v2.55h7.21Z"/><path class="cls-1" d="M158.12,133.87h7.34c3.57,0,6,2,6,5.08,0,3.56-2.73,5.2-6.09,5.2H162.7v5.56h-4.58Zm4.58,7h1.89c1.32,0,2.25-.54,2.25-1.87s-.94-1.88-2.23-1.88H162.7Z"/></g></g></svg>