<svg xmlns="http://www.w3.org/2000/svg" viewBox="0 0 281.15 209.47"><defs><style>.cls-1{fill:#4ebbb5;}.cls-2{fill:#fff;}</style></defs><g id="Layer_2" data-name="Layer 2"><g id="Layer_1-2" data-name="Layer 1"><path class="cls-1" d="M140.29,209.47a104.25,104.25,0,0,1-88.74-49.08,8.67,8.67,0,0,1,14.69-9.22,87.4,87.4,0,0,0,161.44-46.43V96.06h44.79a8.68,8.68,0,1,1,0,17.35h-27.8A104.87,104.87,0,0,1,140.29,209.47Z"/><path class="cls-1" d="M52.9,113.41H8.67a8.68,8.68,0,0,1,0-17.35H35.91A104.74,104.74,0,0,1,227.13,46.17a8.67,8.67,0,1,1-14.37,9.71A87.4,87.4,0,0,0,52.9,104.74Z"/><circle class="cls-2" cx="140.57" cy="104.74" r="83.08"/><path class="cls-1" d="M144.64,92.51c0,13-4.68,23.9-19.08,23.9-14.17,0-19-10.82-19-23.62,0-12.49,5-23.67,19.19-23.67C139.32,69.12,144.64,79.25,144.64,92.51Zm-24.34.09c0,9.53.75,14.44,5.4,14.44s5.15-4.82,5.15-14.41c0-9.86-.79-14.15-5.11-14.15C121.61,78.48,120.3,82.24,120.3,92.6Z"/><path class="cls-1" d="M157.14,115.53V83.61a33.66,33.66,0,0,1-6.8.72V75.57A18.69,18.69,0,0,0,161.28,70h9.51v45.54Z"/><path class="cls-1" d="M118.74,144.92c.27,1.38,1.23,2,2.73,2s2-.5,2-1.41-.7-1.44-3.2-2c-4.68-1.13-5.61-2.84-5.61-5,0-2.66,2-4.89,6.37-4.89,4.58,0,6.45,2.33,6.67,4.83h-4.48c-.12-.85-.56-1.72-2.2-1.72-1.07,0-1.72.41-1.72,1.26s.58,1.2,3,1.79c4.89,1.22,5.85,3,5.85,5.24,0,3-2.29,5-6.94,5-4.38,0-6.71-2-7.06-5.09Z"/><path class="cls-1" d="M133.61,137.31h-4.52v-3.44h13.66v3.44h-4.49v12.4h-4.65Z"/><path class="cls-1" d="M156.37,143.3h-7.22v3h8l-.51,3.44h-12V133.87h12v3.44h-7.52v2.55h7.22Z"/><path class="cls-1" d="M159.32,133.87h7.34c3.57,0,6,2,6,5.08,0,3.56-2.73,5.2-6.09,5.2H163.9v5.56h-4.58Zm4.58,7h1.9c1.31,0,2.24-.54,2.24-1.87s-.94-1.88-2.23-1.88H163.9Z"/></g></g></svg>