<svg xmlns="http://www.w3.org/2000/svg" viewBox="0 0 200.19 60"><defs><style>.cls-1{fill:#00abed;}.cls-2{fill:#027193;}.cls-3{fill:#fff;}</style></defs><g id="Layer_2" data-name="Layer 2"><g id="Layer_1-2" data-name="Layer 1"><path class="cls-1" d="M20.1,0h160a0,0,0,0,1,0,0V50a10,10,0,0,1-10,10H30.1a10,10,0,0,1-10-10V0A0,0,0,0,1,20.1,0Z"/><polygon class="cls-2" points="200.19 20 180.19 20 180.19 0 200.19 20"/><polygon class="cls-2" points="20 0 20 20 0 20 20 0"/><path class="cls-3" d="M94.63,16.66c1,0,1.93,0,2.67.08a19.2,19.2,0,0,1,2,.24,16.42,16.42,0,0,1,1.92.44L100.87,21c-.71,0-1.35-.08-1.94-.1L97,20.86H94.63a4.37,4.37,0,0,0-2.55.64,3.61,3.61,0,0,0-1.29,2.22,19.16,19.16,0,0,0-.39,4.37,19.16,19.16,0,0,0,.39,4.37,3.58,3.58,0,0,0,1.29,2.22,4.37,4.37,0,0,0,2.55.64c1.47,0,2.7,0,3.71-.06s2-.12,3-.23l.42,3.59a18.5,18.5,0,0,1-3.14.69,33.41,33.41,0,0,1-4,.2,11.59,11.59,0,0,1-5.49-1.1,6.38,6.38,0,0,1-3-3.6,20,20,0,0,1-.91-6.72,20,20,0,0,1,.91-6.72,6.38,6.38,0,0,1,3-3.6A11.59,11.59,0,0,1,94.63,16.66Z"/><path class="cls-3" d="M113.47,17V39.12h-4.86V23.47q0-.6,0-1.2a8.6,8.6,0,0,1,.16-1.2l-5.25,1.35L103,19.25,108.61,17Z"/></g></g></svg>