<svg xmlns="http://www.w3.org/2000/svg" viewBox="0 0 200.19 60"><defs><style>.cls-1{fill:#00abed;}.cls-2{fill:#027193;}.cls-3{fill:#fff;}</style></defs><g id="Layer_2" data-name="Layer 2"><g id="Layer_1-2" data-name="Layer 1"><path class="cls-1" d="M20.1,0h160a0,0,0,0,1,0,0V50a10,10,0,0,1-10,10H30.1a10,10,0,0,1-10-10V0A0,0,0,0,1,20.1,0Z"/><polygon class="cls-2" points="200.19 20 180.19 20 180.19 0 200.19 20"/><polygon class="cls-2" points="20 0 20 20 0 20 20 0"/><path class="cls-3" d="M92.24,16.66c1.05,0,1.94,0,2.67.08a18.59,18.59,0,0,1,2,.24,16.42,16.42,0,0,1,1.92.44L98.48,21c-.7,0-1.35-.08-1.94-.1l-1.88-.05H92.24a4.34,4.34,0,0,0-2.54.64,3.66,3.66,0,0,0-1.3,2.22A19.85,19.85,0,0,0,88,28.08a19.85,19.85,0,0,0,.38,4.37,3.63,3.63,0,0,0,1.3,2.22,4.34,4.34,0,0,0,2.54.64c1.47,0,2.71,0,3.71-.06s2-.12,3-.23l.42,3.59a18.72,18.72,0,0,1-3.14.69,33.6,33.6,0,0,1-4,.2,11.64,11.64,0,0,1-5.49-1.1,6.41,6.41,0,0,1-3-3.6,20,20,0,0,1-.92-6.72,20,20,0,0,1,.92-6.72,6.41,6.41,0,0,1,3-3.6A11.64,11.64,0,0,1,92.24,16.66Z"/><path class="cls-3" d="M109.3,16.66a17.1,17.1,0,0,1,4,.4,4.63,4.63,0,0,1,2.59,1.52,4.92,4.92,0,0,1,.92,3.23,8.62,8.62,0,0,1-.3,2.32,7.58,7.58,0,0,1-1.09,2.22,22.55,22.55,0,0,1-2.25,2.72l-5.79,6a14.41,14.41,0,0,1,1.61-.18c.54,0,1.09-.05,1.65-.05h6.81v4.29h-15.8V36.5a3.4,3.4,0,0,1,.16-1.08,2.5,2.5,0,0,1,.51-.91l5.5-5.89a25.49,25.49,0,0,0,3-3.58,4.86,4.86,0,0,0,1-2.72,1.41,1.41,0,0,0-.37-1,1.71,1.71,0,0,0-1-.42,12.78,12.78,0,0,0-1.67-.1l-2.09,0c-.65,0-1.35,0-2.08.08s-1.6.11-2.58.19l-.19-3.65c1-.23,2-.4,2.83-.51s1.64-.17,2.4-.21S108.55,16.66,109.3,16.66Z"/></g></g></svg>