<svg xmlns="http://www.w3.org/2000/svg" viewBox="0 0 200.19 60"><defs><style>.cls-1{fill:#00abed;}.cls-2{fill:#027193;}.cls-3{fill:#fff;}</style></defs><g id="Layer_2" data-name="Layer 2"><g id="Layer_1-2" data-name="Layer 1"><path class="cls-1" d="M20.1,0h160a0,0,0,0,1,0,0V50a10,10,0,0,1-10,10H30.1a10,10,0,0,1-10-10V0A0,0,0,0,1,20.1,0Z"/><polygon class="cls-2" points="200.19 20 180.19 20 180.19 0 200.19 20"/><polygon class="cls-2" points="20 0 20 20 0 20 20 0"/><path class="cls-3" d="M92.47,16.66c1,0,1.93,0,2.67.08a19.2,19.2,0,0,1,2,.24,16.42,16.42,0,0,1,1.92.44L98.71,21c-.71,0-1.35-.08-1.94-.1l-1.89-.05H92.47a4.37,4.37,0,0,0-2.55.64,3.61,3.61,0,0,0-1.29,2.22,19.16,19.16,0,0,0-.39,4.37,19.16,19.16,0,0,0,.39,4.37,3.58,3.58,0,0,0,1.29,2.22,4.37,4.37,0,0,0,2.55.64c1.47,0,2.7,0,3.71-.06s2-.12,3-.23l.42,3.59a18.5,18.5,0,0,1-3.14.69,33.41,33.41,0,0,1-4,.2A11.59,11.59,0,0,1,87,38.4a6.38,6.38,0,0,1-3-3.6,20,20,0,0,1-.91-6.72A20,20,0,0,1,84,21.36a6.38,6.38,0,0,1,3-3.6A11.59,11.59,0,0,1,92.47,16.66Z"/><path class="cls-3" d="M109.14,16.59a15.29,15.29,0,0,1,4.2.47,3.9,3.9,0,0,1,2.31,1.58,5.71,5.71,0,0,1,.72,3.1,11.48,11.48,0,0,1-.29,2.71,3.93,3.93,0,0,1-1,1.9,3.77,3.77,0,0,1-2.11,1v.13a4.22,4.22,0,0,1,3.13,1.73A7.27,7.27,0,0,1,117,33a8.12,8.12,0,0,1-.71,3.76,4.48,4.48,0,0,1-2.41,2.14,12.08,12.08,0,0,1-4.5.69q-1.92,0-3.87-.18c-1.3-.12-2.56-.26-3.78-.43l.2-3.58c.85.06,1.61.11,2.28.14l1.94.08q.93,0,1.89,0a8.9,8.9,0,0,0,2.46-.27,2,2,0,0,0,1.28-1,4.34,4.34,0,0,0,.38-2,4.74,4.74,0,0,0-.27-1.72,2,2,0,0,0-1-1.05,4.69,4.69,0,0,0-2.15-.34l-4.19,0V26h4.19a4.63,4.63,0,0,0,1.66-.24,2.08,2.08,0,0,0,.92-.64,2.22,2.22,0,0,0,.4-.94,7.29,7.29,0,0,0,.09-1.19,3.65,3.65,0,0,0-.33-1.6,1.62,1.62,0,0,0-1.06-.73,8.82,8.82,0,0,0-2.1-.19c-1.1,0-2.18,0-3.21,0l-2.74.08-.22-3.42c1.19-.21,2.37-.37,3.54-.46S108,16.59,109.14,16.59Z"/></g></g></svg>