<svg xmlns="http://www.w3.org/2000/svg" viewBox="0 0 200.19 60"><defs><style>.cls-1{fill:#00abed;}.cls-2{fill:#027193;}.cls-3{fill:#fff;}</style></defs><g id="Layer_2" data-name="Layer 2"><g id="Layer_1-2" data-name="Layer 1"><path class="cls-1" d="M20.1,0h160a0,0,0,0,1,0,0V50a10,10,0,0,1-10,10H30.1a10,10,0,0,1-10-10V0A0,0,0,0,1,20.1,0Z"/><polygon class="cls-2" points="200.19 20 180.19 20 180.19 0 200.19 20"/><polygon class="cls-2" points="20 0 20 20 0 20 20 0"/><path class="cls-3" d="M91.51,16.66c1,0,1.93,0,2.67.08a19.2,19.2,0,0,1,2,.24,16.42,16.42,0,0,1,1.92.44L97.74,21c-.7,0-1.34-.08-1.93-.1l-1.89-.05H91.51a4.37,4.37,0,0,0-2.55.64,3.66,3.66,0,0,0-1.3,2.22,19.85,19.85,0,0,0-.38,4.37,19.85,19.85,0,0,0,.38,4.37A3.63,3.63,0,0,0,89,34.67a4.37,4.37,0,0,0,2.55.64c1.47,0,2.7,0,3.71-.06s2-.12,3-.23l.42,3.59a18.5,18.5,0,0,1-3.14.69,33.41,33.41,0,0,1-4,.2A11.59,11.59,0,0,1,86,38.4a6.38,6.38,0,0,1-3-3.6,20,20,0,0,1-.91-6.72A20,20,0,0,1,83,21.36a6.38,6.38,0,0,1,3-3.6A11.59,11.59,0,0,1,91.51,16.66Z"/><path class="cls-3" d="M110.55,17l-5.32,12.7c-.15.35-.15.61,0,.79a.84.84,0,0,0,.68.27h12.67v2.91l-2.72.48H102.39a2.45,2.45,0,0,1-1.54-.49,2.35,2.35,0,0,1-.7-2.87L105.94,17Zm5.34,4.29V39.12h-4.51V24.85l.8-3.52Z"/></g></g></svg>