<svg xmlns="http://www.w3.org/2000/svg" viewBox="0 0 75.83 80"><defs><style>.cls-1{fill:#0ac;}</style></defs><g id="Layer_2" data-name="Layer 2"><g id="Layer_1-2" data-name="Layer 1"><path class="cls-1" d="M29.45,72.06q-4.82,0-9.62-.12H18.55a31.47,31.47,0,0,1-3.64-.15A12.34,12.34,0,0,1,8.58,68.9a13.31,13.31,0,0,1-4.11-6.07,10.4,10.4,0,0,1-.62-3.62q0-13.33,0-26.66V16a7,7,0,0,1,.2-1.64A14.48,14.48,0,0,1,6.88,8.58,13.37,13.37,0,0,1,13.1,4.42a7.37,7.37,0,0,1,2.31-.54q18.93,0,37.85,0h7.17a1.62,1.62,0,0,1,.33,0,16.69,16.69,0,0,1,3.67,1.23,13.18,13.18,0,0,1,7.29,9.31,12.42,12.42,0,0,1,.2,2.81v.69c0,3.47,0,7,.07,10.42l0,5.91q0,1.88.06,3.75a1.86,1.86,0,0,0,3.71,0c0-.33,0-.67,0-1l0-21.91a1.71,1.71,0,0,0-.07-.56l-.26-.89c-.24-.78-.48-1.59-.77-2.38a17.57,17.57,0,0,0-6.85-8.48A19.51,19.51,0,0,0,61.51.15,3.85,3.85,0,0,0,60.57,0h0L18.51,0h-.79a18.84,18.84,0,0,0-2.8.11A16,16,0,0,0,8,2.77,18.22,18.22,0,0,0,.61,12.69a12.75,12.75,0,0,0-.61,4c0,5.27,0,10.54,0,15.82V60.26A5.75,5.75,0,0,0,.2,61.64,19,19,0,0,0,6.41,71.81a18.69,18.69,0,0,0,6.2,3.34,11,11,0,0,0,3.57.64h.41c.85,0,1.72,0,2.56,0H30a1.06,1.06,0,0,0,.75-.29,2,2,0,0,0,.53-2.23A1.79,1.79,0,0,0,29.45,72.06Z"/><path class="cls-1" d="M75.53,59.72A16.43,16.43,0,0,0,70.93,51a16.79,16.79,0,0,0-12.18-5.31,17.3,17.3,0,0,0-12.32,5,5,5,0,0,0-.82,1,1.64,1.64,0,0,0,.28,2.15,1.73,1.73,0,0,0,2.25.1,9.38,9.38,0,0,0,.82-.72,14.2,14.2,0,0,1,3.62-2.63,13.86,13.86,0,0,1,8.27-1.17,13.07,13.07,0,0,1,8.72,5.18,13.45,13.45,0,0,1,2.66,9.3A13,13,0,0,1,67,73.67a13.43,13.43,0,0,1-10.91,2.51,13.22,13.22,0,0,1-9.74-7.08,10.39,10.39,0,0,1-.84-1.95H51.4V66c0-.5,0-1,0-1.47a1,1,0,0,0-.22-.72,1,1,0,0,0-.73-.24c-3.12,0-6.25.06-9.37.07a.82.82,0,0,0-.92.92c0,2.54,0,5.07-.05,7.61v2.7h1.16c.52,0,1,0,1.55,0a.77.77,0,0,0,.86-.85c0-.84,0-1.68,0-2.52A17.51,17.51,0,0,0,49,77a17.31,17.31,0,0,0,9.67,3A18.24,18.24,0,0,0,62,79.68a16.69,16.69,0,0,0,9-5A16.45,16.45,0,0,0,75.53,59.72Z"/><path class="cls-1" d="M37.89,20.38h0c3.15,0,6.3,0,9.46,0H63.13a1,1,0,0,0,.73-.21,2.19,2.19,0,0,0,.85-2,1.61,1.61,0,0,0-1.58-1.46c-.46,0-.92-.06-1.38-.06l-6.56,0-17.26-.07h0a1.7,1.7,0,0,0-1.49.75,1.81,1.81,0,0,0-.16,2A1.77,1.77,0,0,0,37.89,20.38Z"/><path class="cls-1" d="M47.33,39.73h6.12q4.72,0,9.45,0h0a1.74,1.74,0,0,0,1.65-1.06A1.82,1.82,0,0,0,63,36.06H58.18Q48,36.06,37.9,36a1.63,1.63,0,0,0-1.49.76,1.75,1.75,0,0,0-.15,1.91,1.64,1.64,0,0,0,1.6,1Q42.6,39.71,47.33,39.73Z"/><path class="cls-1" d="M30,30.59a1.9,1.9,0,0,0-1.34-1.42,1.82,1.82,0,0,0-1.95.6l-4.19,4.86-4.09,4.75-.77-.52-.83-.57-1.25-.9c-.69-.49-1.38-1-2.08-1.47a3.41,3.41,0,0,0-.77-.38l-.27-.12h-.12a1.9,1.9,0,0,0-1.76,1.19,1.68,1.68,0,0,0,.45,2l.91.69c1.78,1.35,3.62,2.74,5.47,4.06a2.42,2.42,0,0,0,1.36.56,2.15,2.15,0,0,0,1.56-1q2.7-3.09,5.36-6.21c.83-1,1.64-2,2.46-2.94l1.48-1.77A1.53,1.53,0,0,0,30,30.59Z"/><path class="cls-1" d="M11.5,19.63,17.28,24a2.33,2.33,0,0,0,1.34.57A1.93,1.93,0,0,0,20,23.72c.88-1,1.77-2,2.65-3,1.47-1.67,2.94-3.35,4.39-5,.86-1,1.71-2.08,2.52-3.22A1.69,1.69,0,0,0,30,11.14,1.81,1.81,0,0,0,29.08,10a1.69,1.69,0,0,0-2.3.27c-.31.34-.63.69-.93,1l-7.1,8.17c-.07.08-.13.17-.2.26a3.73,3.73,0,0,1-.26.3A2.83,2.83,0,0,1,18,19.8l-.3-.24-1.57-1.13-2.81-2a3.74,3.74,0,0,0-.63-.32l-.23-.1h-.13a1.92,1.92,0,0,0-1.78,1.16A1.55,1.55,0,0,0,10.89,19,4.89,4.89,0,0,0,11.5,19.63Z"/><path class="cls-1" d="M28.88,50.07a1.48,1.48,0,0,0-1.94.32l-.43.44L19,59.44l-.68.79L16.59,59c-1.13-.81-2.27-1.63-3.39-2.45A1.57,1.57,0,0,0,12,56.29,2.11,2.11,0,0,0,10.7,57,1.64,1.64,0,0,0,11,59.34c.67.59,1.47,1.26,2.29,1.87,1.39,1,2.88,2.13,4.39,3.15a2,2,0,0,0,1.12.43,1.82,1.82,0,0,0,1.3-.79l.11-.13c1.53-1.75,3.06-3.5,4.57-5.28,1.34-1.59,2.67-3.2,4-4.81l.84-1A1.81,1.81,0,0,0,30,52,1.87,1.87,0,0,0,28.88,50.07Z"/></g></g></svg>