<svg xmlns="http://www.w3.org/2000/svg" viewBox="0 0 80.01 80"><defs><style>.cls-1{fill:#0ac;}</style></defs><g id="Layer_2" data-name="Layer 2"><g id="Layer_1-2" data-name="Layer 1"><path class="cls-1" d="M79.82,71.37A10.66,10.66,0,0,0,62.77,61a10.8,10.8,0,0,0-4,7H53.29a10.77,10.77,0,0,0-9.95-9.31,10.4,10.4,0,0,0-6.48,1.72A10.74,10.74,0,0,0,32.08,68H26.63a10.79,10.79,0,0,0-10.19-9.28c-5.37-.17-9,2.75-11,9A3.78,3.78,0,0,1,2.67,64q0-9.29,0-18.57a4,4,0,0,1,4.09-4q9.37,0,18.75,0a1.59,1.59,0,0,1,1,.41c1.34,1.28,2.64,2.62,4,3.93l.52.47,2-1.85-3.13-3c1.88,0,3.52.09,5.13,0a3.46,3.46,0,0,1,3.1,1.29c1.12,1.29,2.39,2.45,3.61,3.67l2-2-3.1-2.92c2.12,0,4.06,0,6,0a1.81,1.81,0,0,1,1.45.62c1.4,1.46,2.84,2.88,4.2,4.25l2.07-1.92-3-2.93H73a6.67,6.67,0,0,0,7-7q0-9.08,0-18.16a6.58,6.58,0,0,0-4.84-6.6.84.84,0,0,1-.67-.78A10.63,10.63,0,0,0,54,7c-.27.75-.44,1.53-.67,2.33h-5c-.13,0-.26,0-.38,0A10.77,10.77,0,0,0,37.85,0a10.43,10.43,0,0,0-6.59,1.91,10.72,10.72,0,0,0-4.51,7.34H21.24c0-.18,0-.28-.07-.39-.93-4.43-3.53-7.41-7.92-8.51S5,.72,2.11,4.34A12.12,12.12,0,0,0,0,9.34V12a5.6,5.6,0,0,1,.17.54,10.36,10.36,0,0,0,7.27,8.26,10.18,10.18,0,0,0,10.68-2.55,10.45,10.45,0,0,0,3.13-6.2h5.49a10.74,10.74,0,0,0,9.78,9.25A10.27,10.27,0,0,0,43,19.72a10.71,10.71,0,0,0,5-7.66h5.46a10.78,10.78,0,0,0,9.86,9.25,10.37,10.37,0,0,0,6.35-1.57,10.79,10.79,0,0,0,5-7.43,3.81,3.81,0,0,1,2.78,3.86V34.33A4,4,0,0,1,73,38.67H51.43l-.08-.19,2.87-2.72-1.87-2c-1.49,1.49-3,2.94-4.37,4.42a1.62,1.62,0,0,1-1.31.52c-1.77,0-3.55,0-5.33,0-.2,0-.4,0-.6-.06l-.16-.25,2.89-2.71-1.78-1.94c-.79.81-1.54,1.59-2.3,2.35s-1.6,2-2.64,2.48-2.41.12-3.63.13h-3l-.09-.2,2.82-2.72-1.81-2c-1.45,1.46-2.87,2.86-4.25,4.31a1.93,1.93,0,0,1-1.52.64q-9.24,0-18.49,0A6.48,6.48,0,0,0,.52,42.78,15.84,15.84,0,0,0,0,44.34V65a20.1,20.1,0,0,0,1.13,2.65,6.31,6.31,0,0,0,3.63,2.74c.28.09.66.37.7.62a10.73,10.73,0,0,0,9,8.87c.08,0,.14.08.21.12h2.66A26,26,0,0,0,20,79.19a10.48,10.48,0,0,0,6.49-8c0-.11,0-.22.07-.33s0,0,.08-.11h5.44A10.7,10.7,0,0,0,36,77.59a10.36,10.36,0,0,0,4.93,2.25,4,4,0,0,1,.45.16H44a26,26,0,0,0,2.68-.81,10.48,10.48,0,0,0,6.49-8c0-.13,0-.27.09-.44h5.5a10.72,10.72,0,0,0,3.8,6.83,10.32,10.32,0,0,0,5.08,2.31A2.21,2.21,0,0,1,68,80h2.66c.21-.06.42-.14.63-.18A10.77,10.77,0,0,0,79.82,71.37ZM10.66,18.67a8,8,0,1,1,8-8A8,8,0,0,1,10.66,18.67Zm26.7,0a8,8,0,1,1,8-8A8,8,0,0,1,37.36,18.67Zm26.64,0a8,8,0,1,1,8-8A8,8,0,0,1,64,18.67ZM16,77.33a8,8,0,1,1,8-8A8,8,0,0,1,16,77.33Zm26.61,0a8,8,0,1,1,8-8A8,8,0,0,1,42.64,77.33Zm26.69,0a8,8,0,1,1,8-8A8,8,0,0,1,69.33,77.33Z"/><path class="cls-1" d="M9.17,11.71,7.72,9.78c-.72.68-1.33,1.24-2,1.92.79.75,1.57,1.46,2.32,2.2,1.06,1,1.61,1,2.65,0l5.76-5.76c.17-.17.32-.36.48-.54L15.06,5.77Z"/><path class="cls-1" d="M35.79,11.54,34.41,9.75l-2,1.9c.84.82,1.65,1.62,2.46,2.4a1.4,1.4,0,0,0,2.35,0c1.62-1.6,3.21-3.22,4.83-4.81.53-.52,1.12-1,1.71-1.49L41.61,5.68Z"/><path class="cls-1" d="M62.58,11.53,61.1,9.71l-2,2c.77.73,1.56,1.47,2.33,2.22,1,.95,1.56,1,2.53,0l5.82-5.82a5.32,5.32,0,0,0,.42-.48L68.36,5.73Z"/><path class="cls-1" d="M14.43,70.2l-1.38-1.82c-.73.71-1.33,1.28-2,2l2.41,2.32c.94.91,1.53.92,2.47,0,1.79-1.78,3.56-3.58,5.36-5.34a7,7,0,0,1,1-.74l-2-2.24Z"/><path class="cls-1" d="M41.19,70.21l-1.34-1.76-2.13,1.91c.87.84,1.7,1.65,2.54,2.45a1.36,1.36,0,0,0,2.18,0c1-1,2-2,2.94-2.94,1.17-1.17,2.35-2.34,3.53-3.53L47,64.39Z"/><path class="cls-1" d="M73.6,64.33l-5.84,5.86-1.34-1.75-2,1.88,2.41,2.34c.93.92,1.53.92,2.47,0,1.79-1.78,3.56-3.57,5.36-5.34a7.92,7.92,0,0,1,1-.72Z"/></g></g></svg>