<svg xmlns="http://www.w3.org/2000/svg" viewBox="0 0 76.36 80"><defs><style>.cls-1{fill:#0ac;}</style></defs><g id="Layer_2" data-name="Layer 2"><g id="Layer_1-2" data-name="Layer 1"><path class="cls-1" d="M24.21,59.77c-4.52,0-9,0-13.57,0,4.52,0,9.05,0,13.57,0h0Z"/><path class="cls-1" d="M28.07,31.34c-2.84,0-5.68,0-8.52,0h0C22.39,31.35,25.23,31.36,28.07,31.34Z"/><path class="cls-1" d="M70.25,65.89c-.2-.33-.64-.78-.92-.75-1,.12-1.3-.6-1.69-1.25-.8-1.28-1.55-2.59-2.41-3.82-.44-.64-.32-1,.21-1.48a16.09,16.09,0,0,0-5.32-26.82A1.39,1.39,0,0,1,59,30.2q0-11,0-22A8.09,8.09,0,0,0,50.91,0Q29.55,0,8.19,0A8.1,8.1,0,0,0,0,8.26Q0,38.83,0,69.39a8.15,8.15,0,0,0,8.51,8.46q21.11,0,42.2,0A8.15,8.15,0,0,0,59,69.63c0-1.83,0-3.65,0-5.48s0-1.94,2-2.5L64,66.23c.4.63.91,1.2.36,2.06-.15.24.07.83.27,1.16q2.75,4.48,5.56,8.93a3.35,3.35,0,1,0,5.66-3.57C74,71.82,72.13,68.85,70.25,65.89ZM56.09,69.68a5.24,5.24,0,0,1-4.92,5.2c-.24,0-.49,0-.74,0q-20.88,0-41.77,0a5.24,5.24,0,0,1-5.28-3.25A5.74,5.74,0,0,1,3,69.51q0-30.62,0-61.24A5.11,5.11,0,0,1,8,3c8.52-.06,17,0,25.57,0,.09,0,.19,0,.48.11v28l7.78-8,7.75,8V3.13A5.2,5.2,0,0,1,56.08,8c0,7.37,0,14.73,0,22.1a6,6,0,0,1-.06.6A16.06,16.06,0,0,0,42.09,36.5a15.7,15.7,0,0,0-3.72,11.41A16.29,16.29,0,0,0,56.09,63c0,1.19,0,2.36,0,3.54S56.11,68.63,56.09,69.68Zm-1.68-9.6A13.24,13.24,0,1,1,67.66,46.84,13.21,13.21,0,0,1,54.41,60.08Z"/><path class="cls-1" d="M42.77,66c-.24-.17-.68-.09-1-.09H11c-.32,0-.72-.12-.93,0-.41.29-1,.73-1,1.13s.54.85.93,1.16c.2.16.61.07.93.07H41.58c.38,0,.86.1,1.13-.09A1.93,1.93,0,0,0,43.56,67C43.58,66.7,43.12,66.23,42.77,66Z"/><path class="cls-1" d="M10.89,68.28h0Z"/><path class="cls-1" d="M10.64,59.76c4.52,0,9.05,0,13.57,0H38c.85,0,1.5-.28,1.51-1.21s-.66-1.23-1.49-1.24H11.29a3.77,3.77,0,0,0-1.35.09,1.65,1.65,0,0,0-.9.88,1.27,1.27,0,0,0,.34,1.11A2.21,2.21,0,0,0,10.64,59.76Z"/><path class="cls-1" d="M10,51.18c.24.18.68.08,1,.08,3.93,0,7.85,0,11.78,0s8,0,12,0c.35,0,.79.08,1-.1.38-.28.89-.78.84-1.12s-.56-.85-1-1.16c-.2-.15-.61,0-.93,0H11c-.31,0-.71-.11-.92,0-.42.3-1,.73-1,1.13S9.55,50.88,10,51.18Z"/><path class="cls-1" d="M11,51.26H34.74c-4,0-8,0-12,0S14.91,51.27,11,51.26Z"/><path class="cls-1" d="M27.66,38H11.25a2.54,2.54,0,0,0-1.21.2,1.37,1.37,0,0,0-.66,1A1.61,1.61,0,0,0,10,40.19a1.94,1.94,0,0,0,1.1.2c2.77,0,5.54,0,8.31,0h8.2c1.43,0,2.07-.38,2.08-1.22S29.1,38,27.66,38Z"/><path class="cls-1" d="M11.14,40.39c2.77,0,5.54,0,8.31,0h0C16.68,40.4,13.91,40.41,11.14,40.39Z"/><path class="cls-1" d="M10.94,33.74H28.08c.85,0,1.64-.21,1.62-1.21s-.76-1.2-1.63-1.19c-2.84,0-5.68,0-8.52,0H10.93c-.81,0-1.49.21-1.58,1.15C9.28,33.25,9.89,33.73,10.94,33.74Z"/><path class="cls-1" d="M58.2,46.8a7,7,0,0,0-7.81.27,7.2,7.2,0,0,0-2.94,7.21h14A7.21,7.21,0,0,0,58.2,46.8Z"/><path class="cls-1" d="M54.34,45.05a3.46,3.46,0,0,0,0-6.92,3.46,3.46,0,1,0,0,6.92Z"/></g></g></svg>