<svg xmlns="http://www.w3.org/2000/svg" viewBox="0 0 80 80"><defs><style>.cls-1{fill:#00acf2;}.cls-2{fill:#fff;}</style></defs><g id="Layer_2" data-name="Layer 2"><g id="Layer_1-2" data-name="Layer 1"><circle class="cls-1" cx="40" cy="40" r="40"/><path class="cls-2" d="M62.49,45.21q0-8,0-15.95A1.32,1.32,0,0,0,62,28.11a5.85,5.85,0,0,0-1.21-.64,16.14,16.14,0,0,0-3.44-.76c-.18,0-.22-.09-.22-.25,0-.86,0-1.73,0-2.59a1.38,1.38,0,0,0-.55-1.17,2.88,2.88,0,0,0-.75-.45,14.8,14.8,0,0,0-1.71-.55,38.53,38.53,0,0,0-7-.81,64.48,64.48,0,0,0-8.79.22,27.62,27.62,0,0,0-4.15.68,5.83,5.83,0,0,0-1.93.79,1.46,1.46,0,0,0-.7,1.24v5.32a1.15,1.15,0,0,0,.41,1,4.3,4.3,0,0,0,1,.64,10,10,0,0,0,2.46.69c.51.1,1,.17,1.53.26v3.68a12.63,12.63,0,0,0-9.23-1.53A12.45,12.45,0,0,0,19.83,39a12.78,12.78,0,0,0,.65,15.56,12.47,12.47,0,0,0,7.08,4.3,12.68,12.68,0,0,0,9.65-1.71,6.81,6.81,0,0,0,.9.55,14.41,14.41,0,0,0,1.79.59,37.78,37.78,0,0,0,7,.81,61.35,61.35,0,0,0,10-.36A17.73,17.73,0,0,0,60.49,58a6.37,6.37,0,0,0,1.3-.6,1.46,1.46,0,0,0,.71-1.34Q62.49,50.64,62.49,45.21ZM59.3,31.3c.49-.11,1-.26,1.47-.39v1.83c0,.47,0,.94,0,1.42,0,.19-.06.3-.23.35-.65.19-1.28.43-1.94.56a37.14,37.14,0,0,1-5.86.65c-2,.09-4.11.1-6.16,0a33.79,33.79,0,0,1-6.73-.86,10.31,10.31,0,0,1-1.06-.38c-.07,0-.16-.12-.16-.19,0-.79,0-1.58,0-2.41l.76.05a74,74,0,0,0,7.45.15c1.44,0,2.88,0,4.32,0A42,42,0,0,0,59.3,31.3Zm1.48,19c0,.23-.07.36-.28.41a19.94,19.94,0,0,1-2.14.59,44.07,44.07,0,0,1-7.44.66c-2,0-4,0-6-.16-1-.07-1.94-.19-2.94-.3A13.35,13.35,0,0,0,43,48h.34a61.63,61.63,0,0,0,7.44.31,53,53,0,0,0,6.54-.46,17.63,17.63,0,0,0,3.45-.76v.78C60.77,48.7,60.76,49.52,60.78,50.34ZM41.65,40.45a12.39,12.39,0,0,0-2.85-3.66.38.38,0,0,1-.15-.43c.8.18,1.59.38,2.39.53a42.17,42.17,0,0,0,5.83.58c2.19.08,4.38.08,6.57,0a34.76,34.76,0,0,0,6.42-.85c.3-.07.59-.17.9-.26,0,.07,0,.13,0,.2,0,1,0,2.06,0,3.08a.29.29,0,0,1-.2.31,7.7,7.7,0,0,1-2.2.63c-1.39.19-2.78.38-4.18.5a55.88,55.88,0,0,1-7.87.08c-1.43-.08-2.86-.26-4.28-.4A.44.44,0,0,1,41.65,40.45ZM34.8,29.54a14.56,14.56,0,0,1-1.41-.47.32.32,0,0,1-.16-.23c0-1.08,0-2.16,0-3.24,0,0,0-.06,0-.08.57.14,1.13.3,1.7.42a32,32,0,0,0,4.35.58,62.81,62.81,0,0,0,7.76.13,37.88,37.88,0,0,0,7-.81c.42-.09.84-.22,1.28-.34v1.94c0,.45,0,.89,0,1.33a.28.28,0,0,1-.21.32c-.65.2-1.29.43-2,.57a35.11,35.11,0,0,1-5,.61c-2,.12-4,.14-6,.08A38.27,38.27,0,0,1,34.8,29.54ZM30.23,57.43a11.07,11.07,0,1,1,11.14-11A11.08,11.08,0,0,1,30.23,57.43Zm30.3-1.28c-.64.19-1.27.42-1.92.55a35.43,35.43,0,0,1-5,.61c-2,.12-4,.14-6,.08a38.69,38.69,0,0,1-7.2-.77A13.61,13.61,0,0,1,39,56.21a2.52,2.52,0,0,1-.34-.16l.7-.67a12.44,12.44,0,0,0,1.68-2.08.24.24,0,0,1,.27-.14,45.49,45.49,0,0,0,7.73.57c1.92,0,3.85-.07,5.76-.19a25.12,25.12,0,0,0,5.38-.84l.57-.17V53c0,.94,0,1.87,0,2.8A.34.34,0,0,1,60.53,56.15Zm0-10.81c-.72.2-1.43.46-2.16.6a45.13,45.13,0,0,1-7.7.65,60.74,60.74,0,0,1-6.75-.25l-.8-.09a13.44,13.44,0,0,0-.59-3.72c.43,0,.84.1,1.25.13,1.73.09,3.46.21,5.19.26a54.6,54.6,0,0,0,6.39-.23,24,24,0,0,0,5.41-1c0,.1,0,.17,0,.25,0,1,0,2,0,3A.34.34,0,0,1,60.52,45.34Z"/><path class="cls-2" d="M30.29,37.16a9.2,9.2,0,1,0,9.21,9.28A9.19,9.19,0,0,0,30.29,37.16Zm2.27,13a3.09,3.09,0,0,1-1.39.61v.68a.87.87,0,0,1-.81.89.86.86,0,0,1-.92-.85c0-.24.07-.53,0-.71s-.41-.17-.62-.26A3.22,3.22,0,0,1,27,48.28a.85.85,0,0,1,.59-1.05.86.86,0,0,1,1.06.56c.06.17.12.33.19.49a1.25,1.25,0,0,0,.67.63,2.29,2.29,0,0,0,1.76,0,1.21,1.21,0,0,0,.41-.3.77.77,0,0,0-.27-1.32c-.48-.19-1-.29-1.48-.45a9.74,9.74,0,0,1-1.51-.56,2.25,2.25,0,0,1-.56-3.54,2.41,2.41,0,0,1,1-.63l.55-.15c0-.25,0-.49,0-.74a.84.84,0,0,1,.88-.81.85.85,0,0,1,.83.81c0,.25,0,.49,0,.75l.37.1a2.42,2.42,0,0,1,1.82,1.81.88.88,0,0,1-.6,1.09.84.84,0,0,1-1.06-.62.81.81,0,0,0-.66-.63,3.21,3.21,0,0,0-1.6,0,.56.56,0,0,0-.48.5.54.54,0,0,0,.41.59c.61.21,1.24.38,1.85.56.25.08.49.15.73.24a2.46,2.46,0,0,1,1.68,2.07A2.59,2.59,0,0,1,32.56,50.13Z"/></g></g></svg>