<svg xmlns="http://www.w3.org/2000/svg" viewBox="0 0 33 33"><defs><style>.cls-1{fill:#4d4d4d;}</style></defs><g id="Layer_2" data-name="Layer 2"><g id="Layer_1-2" data-name="Layer 1"><path class="cls-1" d="M22.5,33h-12A10.51,10.51,0,0,1,0,22.5v-12A10.51,10.51,0,0,1,10.5,0h12A10.51,10.51,0,0,1,33,10.5v12A10.51,10.51,0,0,1,22.5,33ZM10.5,1A9.51,9.51,0,0,0,1,10.5v12A9.51,9.51,0,0,0,10.5,32h12A9.51,9.51,0,0,0,32,22.5v-12A9.51,9.51,0,0,0,22.5,1Z"/><path class="cls-1" d="M25.68,21.85a.75.75,0,0,0-.55-.76l-4.52-1.51a.77.77,0,0,0-.9.27c-.32.39-.64.76-.94,1.16a.28.28,0,0,1-.4.1,12.34,12.34,0,0,1-6.49-6.53.23.23,0,0,1,.08-.33c.4-.31.8-.64,1.19-1a.76.76,0,0,0,.27-.9l-1.5-4.5a.75.75,0,0,0-.78-.56c-.61,0-1.22,0-1.83,0a3.57,3.57,0,0,0-3.48,3.59A16.24,16.24,0,0,0,22.1,27.17a3.56,3.56,0,0,0,3.47-2.76,12.82,12.82,0,0,0,.15-1.52h0Z"/><path class="cls-1" d="M27.15,15.5c0-.28-.06-.57-.11-.85A10.68,10.68,0,0,0,21.35,7c-.32-.16-.64-.31-1-.44L20,6.39a11,11,0,0,0-2.69-.56.82.82,0,0,0-.6.24.7.7,0,0,0-.13.17.9.9,0,0,0-.08.28.77.77,0,0,0,.65.84l.69.07a9.16,9.16,0,0,1,6.34,4.11,8.78,8.78,0,0,1,1.43,4.14.78.78,0,0,0,.86.8A.79.79,0,0,0,27.15,15.5Z"/><path class="cls-1" d="M17.27,10.43a6.15,6.15,0,0,1,5.32,5.41.75.75,0,0,0,.84.64.79.79,0,0,0,.67-.87c0-.16-.06-.41-.11-.66a7.68,7.68,0,0,0-6.58-6,.8.8,0,0,0-.86.53A.77.77,0,0,0,17.27,10.43Z"/><path class="cls-1" d="M17.16,13.51a3.83,3.83,0,0,1,.94.37,2.93,2.93,0,0,1,1.4,2,.78.78,0,0,0,.84.62A.77.77,0,0,0,21,15.7s0-.07,0-.12,0-.06,0-.09A4.52,4.52,0,0,0,17.51,12a.77.77,0,0,0-1,.57A.8.8,0,0,0,17.16,13.51Z"/></g></g></svg>