<svg xmlns="http://www.w3.org/2000/svg" viewBox="0 0 30 30"><defs><style>.cls-1{fill:#4d4d4d;}.cls-2{fill:#e5e5e5;}</style></defs><g id="Layer_2" data-name="Layer 2"><g id="Layer_1-2" data-name="Layer 1"><rect class="cls-1" width="30" height="30" rx="10"/><path class="cls-2" d="M20,6.1a4.81,4.81,0,0,0-1-.09c-2.62,0-5.25,0-7.87,0A4.88,4.88,0,0,0,6.64,8.56,4.73,4.73,0,0,0,6,11c0,2.67,0,5.34,0,8a4.84,4.84,0,0,0,3,4.58,4.4,4.4,0,0,0,1.42.38l.17,0H19.4a7.67,7.67,0,0,0,.81-.15,4.9,4.9,0,0,0,3.7-3.9c0-.18.06-.37.09-.55V10.61a7.23,7.23,0,0,0-.15-.81A4.88,4.88,0,0,0,20,6.1ZM22.4,19a3.32,3.32,0,0,1-2.29,3.26,4.2,4.2,0,0,1-1.17.18q-3.95,0-7.87,0A3.31,3.31,0,0,1,7.8,20.11a3.59,3.59,0,0,1-.19-1.17q0-3.95,0-7.87A3.37,3.37,0,0,1,9.89,7.78,3.55,3.55,0,0,1,11.1,7.6h7.82a3.42,3.42,0,0,1,2,.62A3.29,3.29,0,0,1,22.4,11Q22.42,15,22.4,19Z"/><path class="cls-2" d="M15,10.36A4.64,4.64,0,1,0,19.64,15,4.66,4.66,0,0,0,15,10.36ZM15,18a3,3,0,1,1,3-3A3,3,0,0,1,15,18Z"/><path class="cls-2" d="M19.83,9A1.17,1.17,0,1,0,21,10.18,1.17,1.17,0,0,0,19.83,9Z"/></g></g></svg>