<svg xmlns="http://www.w3.org/2000/svg" viewBox="0 0 33 33"><defs><style>.cls-1{fill:#4d4d4d;}</style></defs><g id="Layer_2" data-name="Layer 2"><g id="Layer_1-2" data-name="Layer 1"><path class="cls-1" d="M22.5,33h-12A10.51,10.51,0,0,1,0,22.5v-12A10.51,10.51,0,0,1,10.5,0h12A10.51,10.51,0,0,1,33,10.5v12A10.51,10.51,0,0,1,22.5,33ZM10.5,1A9.51,9.51,0,0,0,1,10.5v12A9.51,9.51,0,0,0,10.5,32h12A9.51,9.51,0,0,0,32,22.5v-12A9.51,9.51,0,0,0,22.5,1Z"/><path class="cls-1" d="M16.5,17l9.31-8.14-.94-.31H8.12l-.93.3Z"/><path class="cls-1" d="M12.92,15.58,6.25,9.74a1.15,1.15,0,0,0-.13.24c-.1.27-.19.54-.29.82V22.2l.32.95Z"/><path class="cls-1" d="M19,16.56l-2,1.73a.67.67,0,0,1-1,0L15.65,18l-1.74-1.51L7.08,24.09a2.58,2.58,0,0,0,1.34.4c1.08,0,2.16,0,3.25,0H24.56a2.48,2.48,0,0,0,1.35-.41l-6.82-7.63Z"/><path class="cls-1" d="M26.75,9.74l-6.67,5.84,6.74,7.54a2.42,2.42,0,0,0,.35-1.21c0-3.61,0-7.23,0-10.84A2.53,2.53,0,0,0,26.75,9.74Z"/></g></g></svg>