<svg xmlns="http://www.w3.org/2000/svg" viewBox="0 0 33 33"><defs><style>.cls-1{fill:#4d4d4d;}</style></defs><g id="Layer_2" data-name="Layer 2"><g id="Layer_1-2" data-name="Layer 1"><path class="cls-1" d="M22.5,33h-12A10.51,10.51,0,0,1,0,22.5v-12A10.51,10.51,0,0,1,10.5,0h12A10.51,10.51,0,0,1,33,10.5v12A10.51,10.51,0,0,1,22.5,33ZM10.5,1A9.51,9.51,0,0,0,1,10.5v12A9.51,9.51,0,0,0,10.5,32h12A9.51,9.51,0,0,0,32,22.5v-12A9.51,9.51,0,0,0,22.5,1Z"/><path class="cls-1" d="M11.41,16.38a43.57,43.57,0,0,0,4.13,6l.95,1.16.1-.11a50.3,50.3,0,0,0,3.87-5.13,21.45,21.45,0,0,0,2.17-4.1,5.6,5.6,0,0,0,.3-3.38,6.16,6.16,0,0,0-4.69-4.71A6.44,6.44,0,0,0,11.7,7.85a5.56,5.56,0,0,0-1.61,5.4A12.47,12.47,0,0,0,11.41,16.38ZM19.85,12a3.34,3.34,0,1,1-3.33-3.34A3.33,3.33,0,0,1,19.85,12Z"/><path class="cls-1" d="M23.72,21H20.23a.29.29,0,0,0-.27.13,51.56,51.56,0,0,1-3.39,4.15.54.54,0,0,0-.06.11l-.06-.08a51.85,51.85,0,0,1-3.39-4.17.32.32,0,0,0-.3-.14H9.49c-.16,0-.23,0-.28.19q-.9,2.68-1.81,5.39c-.07.21-.13.42-.21.64H25.81Q24.76,24,23.72,21Z"/></g></g></svg>