<svg xmlns="http://www.w3.org/2000/svg" viewBox="0 0 23.55 22"><defs><style>.cls-1{fill:#979797;}</style></defs><g id="Layer_2" data-name="Layer 2"><g id="Layer_1-2" data-name="Layer 1"><path class="cls-1" d="M0,10A10,10,0,1,0,10,0,10,10,0,0,0,0,10Zm2.26,0A7.76,7.76,0,1,1,10,17.77,7.77,7.77,0,0,1,2.26,10Z"/><path class="cls-1" d="M18.88,16l.06,0,1,.81,1.26,1c.45.37.91.73,1.35,1.1.19.16.39.31.56.48a1.48,1.48,0,0,1-1.77,2.35,3.43,3.43,0,0,1-.49-.36L19,19.93l-1.79-1.47-.28-.23A11.36,11.36,0,0,0,18.88,16Z"/></g></g></svg>