<svg xmlns="http://www.w3.org/2000/svg" viewBox="0 0 30 30"><defs><style>.cls-1{fill:#4d4d4d;}.cls-2{fill:#e5e5e5;}</style></defs><g id="Layer_2" data-name="Layer 2"><g id="Layer_1-2" data-name="Layer 1"><rect class="cls-1" width="30" height="30" rx="10"/><path class="cls-2" d="M6.48,19.51A2.94,2.94,0,0,0,8.42,21a8.44,8.44,0,0,0,2.4.29h8.89a7.61,7.61,0,0,0,2-.27,2.76,2.76,0,0,0,2.06-2.26A10.67,10.67,0,0,0,24,17c0-1.52,0-3.05,0-4.58a5.78,5.78,0,0,0-.25-1.85,2.31,2.31,0,0,0-1.49-1.52,6.09,6.09,0,0,0-1.79-.33c-.56,0-1.13,0-1.69,0H10.54a9.3,9.3,0,0,0-2.35.25,2.51,2.51,0,0,0-1.72,1.14,3.4,3.4,0,0,0-.4,1.35c0,.24-.05.47-.07.7v5.16c0,.22,0,.44.07.66A4.67,4.67,0,0,0,6.48,19.51ZM12.93,13a.58.58,0,0,1,.51-.65.73.73,0,0,1,.38.08l3.68,1.9a.59.59,0,0,1,0,1.09l-3.67,1.92a1.86,1.86,0,0,1-.31.1.6.6,0,0,1-.59-.58c0-.16,0-.32,0-.48Z"/></g></g></svg>