<svg xmlns="http://www.w3.org/2000/svg" viewBox="0 0 32 32"><defs><style>.cls-1{fill:gray;}</style></defs><g id="Layer_2" data-name="Layer 2"><g id="Layer_1-2" data-name="Layer 1"><path class="cls-1" d="M7.51,17.25h0Z"/><path class="cls-1" d="M13,12.65h0Z"/><path class="cls-1" d="M29.12,6.88a15.92,15.92,0,0,0-16-6.61A15.52,15.52,0,0,0,3.28,6.35,15.44,15.44,0,0,0,.47,19.72,15.54,15.54,0,0,0,8.06,29.87,15.37,15.37,0,0,0,16,32a1.14,1.14,0,0,0,1.18-1.2,1.19,1.19,0,0,0-1.26-1.11A13.47,13.47,0,0,1,7.1,26.4a13.69,13.69,0,1,1,22.5-8.75,13.55,13.55,0,0,1-3.74,7.85,14.22,14.22,0,0,1-2.13,1.82,1.15,1.15,0,1,0,1.33,1.87A16.07,16.07,0,0,0,32,16c0-.43,0-.86-.06-1.28A16,16,0,0,0,29.12,6.88Z"/><path class="cls-1" d="M7.33,15a1.14,1.14,0,0,0-.89,1.77,1.18,1.18,0,0,0,1.07.52H21.63c1,0,2,0,3,0a1.09,1.09,0,0,0,1-.71,1.13,1.13,0,0,0-.26-1.25,1.24,1.24,0,0,0-1-.34H8.74C8.27,15,7.8,14.93,7.33,15Z"/><path class="cls-1" d="M13,12.65H24.73a1.14,1.14,0,0,0,1-1.34,1.17,1.17,0,0,0-1.23-1H13a1.15,1.15,0,1,0,0,2.3Z"/><path class="cls-1" d="M25.76,20.57a1.14,1.14,0,0,0-1.17-1.21H17.34A1.12,1.12,0,0,0,16.2,20.6a1.15,1.15,0,0,0,1.18,1h7.19A1.15,1.15,0,0,0,25.76,20.57Z"/></g></g></svg>