<svg xmlns="http://www.w3.org/2000/svg" viewBox="0 0 89.26 70"><defs><style>.cls-1{fill:#0ac;}</style></defs><g id="Layer_2" data-name="Layer 2"><g id="Layer_1-2" data-name="Layer 1"><path class="cls-1" d="M57.48,65.86l-.24,0Z"/><path class="cls-1" d="M56.46,63.55a7.12,7.12,0,0,0,0-.8,7.12,7.12,0,0,1,0,.8c0,1.61,0,2.12.78,2.27C56.46,65.67,56.46,65.16,56.46,63.55Z"/><path class="cls-1" d="M57.91,65.89l-.43,0Z"/><path class="cls-1" d="M2.21,19.54C7.36,21.22,12.49,23,17.65,24.63a1.32,1.32,0,0,1,1.06,1.53c0,6,0,12,0,18,0,2.09.3,2.5,2.27,3.07L37,51.86c2.51.72,5,2,7.55,2s5-1.22,7.56-1.9l.22-.07c1.47-.47,2.16-1.49,1.8-2.67s-1.46-1.7-3-1.27c-1.86.52-3.7,1.1-5.57,1.57a3.82,3.82,0,0,1-1.87,0c-4.89-1.36-9.77-2.77-14.65-4.18-2.1-.6-4.2-1.22-6.26-1.83v-17c.38.1.71.18,1,.28,6.5,2.17,13,4.36,19.52,6.49a4,4,0,0,0,2.2.1c2.19-.62,4.33-1.38,6.48-2.12a2.05,2.05,0,1,0-1.26-3.88c-1.74.55-3.45,1.19-5.19,1.69a3.29,3.29,0,0,1-1.84,0q-17-5.61-34-11.29c-.37-.13-.72-.29-1.22-.49l.6-.25Q26.56,10.77,44,4.59a2.82,2.82,0,0,1,1.72.09Q58.81,9.33,71.91,14l8.91,3.19c-.5.2-.77.32-1,.42-5.5,1.84-11,3.67-16.49,5.53-1.43.48-2,1.49-1.61,2.66s1.48,1.64,2.89,1.21c.63-.19,1.25-.41,1.94-.64V43.47l-1.18.38c-.44.13-.88.23-1.31.38a2,2,0,0,0-1.43,2.48,2,2,0,0,0,2.56,1.43c1.07-.27,2.12-.59,3.18-.9,2-.6,2.32-1,2.32-3.14,0-5.92,0-11.85,0-17.77a1.5,1.5,0,0,1,1.24-1.75c5.15-1.66,10.28-3.41,15.43-5.1,1.11-.37,2-.91,2-2.18s-.83-1.8-1.9-2.11c-.15,0-.29-.1-.43-.15q-16-5.71-32-11.44C51.63,2.43,48.38,1.2,45.12,0h-.91c-2.15.81-4.29,1.65-6.46,2.43Q19.95,8.81,2.11,15.13A3.4,3.4,0,0,0,0,16.86v.91A3.33,3.33,0,0,0,2.21,19.54Z"/><path class="cls-1" d="M61.37,57.39c-.84-.21-1-.55-1-1.29,0-3,0,1,0-2V45.17c0-2.94,0-5.89,0-8.83s0-5.88,0-8.82A3,3,0,0,0,59.26,25C55,21.5,50.85,18,46.64,14.5c-1.54-1.28-2.68-1.35-3.56-.26s-.56,2.17,1,3.45c3.85,3.2,7.71,6.39,11.54,9.62a2.11,2.11,0,0,1,.69,1.4c0,11.54,0,16.13,0,27.67,0,.69-.25.94-.86,1.21a4.75,4.75,0,0,0-3.1,4.49c0,1,0,2,0,3.08a4.76,4.76,0,0,0,4.14,4.7,18.43,18.43,0,0,0,4.2,0,4.73,4.73,0,0,0,4.34-4.28,17.4,17.4,0,0,0,0-4.08A4.62,4.62,0,0,0,61.37,57.39Zm-.31,7c0,1.08-.46,1.53-1.51,1.47-.23,0-.45,0-.68,0h-1l-.43,0-.24,0c-.78-.15-.78-.66-.78-2.27a7.12,7.12,0,0,0,0-.8c-.11-1.09.41-1.46,1.47-1.47C61.11,61.25,61.08,61.23,61.06,64.43Z"/><path class="cls-1" d="M60.44,27.52q0,4.41,0,8.82Q60.41,31.93,60.44,27.52Z"/><path class="cls-1" d="M60.42,54.11V45.17c0-2.94,0-5.89,0-8.83,0,2.94,0,5.89,0,8.83Z"/><path class="cls-1" d="M60.42,54.11c0,3,0-1,0,2C60.42,53.12,60.42,57.09,60.42,54.11Z"/></g></g></svg>