<svg xmlns="http://www.w3.org/2000/svg" viewBox="0 0 79.92 70"><defs><style>.cls-1{fill:#0ac;}</style></defs><g id="Layer_2" data-name="Layer 2"><g id="Layer_1-2" data-name="Layer 1"><path class="cls-1" d="M2.67,14.13V39.71q0,12.87,0,25.75,0-12.87,0-25.75Z"/><path class="cls-1" d="M76.18,29.59c-3.06,0-6.11,0-9.16,0H65.88V28.51c0-2,0-4,0-6,0-3.24-1.84-5.08-5.07-5.1-1.24,0-2.48,0-3.86,0V16.25c0-4.2,0-8.4,0-12.61A3.28,3.28,0,0,0,53.3,0H12.77C10.38,0,9.14,1.25,9.12,3.63c0,1.42,0,2.84,0,4.26,0,.68-.15,1-.88.92-1.13-.06-2.26,0-3.38,0a4.88,4.88,0,0,0-3.08,1A5,5,0,0,0,0,14q0,25.8,0,51.61a7.2,7.2,0,0,0,.08,1.23A3.63,3.63,0,0,0,3.39,70c.41,0,.83,0,1.24,0H65.08c2.88,0,4.38-1.06,5.28-3.8.5-1.52.92-3.07,1.38-4.6,2.65-9,5.32-18,7.94-27a5.39,5.39,0,0,0,.15-2.52C79.51,30.49,78.09,29.6,76.18,29.59ZM57,20.67a.79.79,0,0,1,.58-.52c1.27,0,2.54-.06,3.81,0A1.78,1.78,0,0,1,63.18,22c0,2.48,0,5,0,7.61-2,0-3.88,0-5.76,0-.17,0-.47-.35-.47-.54Q56.93,24.84,57,20.67ZM11.78,39.76V4.06c0-1.39,0-1.39,1.39-1.39H52.9c1.36,0,1.38,0,1.38,1.4V28.41c0,1.17,0,1.17-1.14,1.17H19.72c-3.39,0-4.87,1.11-5.79,4.33-.57,2-1.12,3.93-1.69,5.9-.08.27-.18.53-.27.8l-.19,0ZM4.4,66.71a1.13,1.13,0,0,1-.88.53c-.29,0-.62-.42-.76-.73a2.59,2.59,0,0,1-.08-1.05q0-12.87,0-25.75V14.13c0-2.12.56-2.67,2.71-2.67.94,0,1.89,0,2.84,0,.68,0,.93.17.91.89,0,2.49,0,5,0,7.46q0,15,0,29.93a6.69,6.69,0,0,1-.26,1.83C7.58,56.12,6.27,60.67,5,65.23A5.75,5.75,0,0,1,4.4,66.71ZM77.22,33.49c0,.2-.11.39-.17.59q-4.47,15.21-8.93,30.43c-.09.28-.17.56-.28.84-.65,1.71-1.06,2-2.89,2H7.21c.07-.33.1-.56.16-.78l9.18-32.11c.53-1.83,1-2.2,3-2.2h56.8C77.18,32.31,77.42,32.64,77.22,33.49Z"/><path class="cls-1" d="M17.65,13.09a1.66,1.66,0,0,0,.94.14h14v0H45.87a13.38,13.38,0,0,0,1.42,0,1.29,1.29,0,0,0,1.24-1.37,1.3,1.3,0,0,0-1.27-1.25,5.56,5.56,0,0,0-.71,0H18.74a4.65,4.65,0,0,0-1.06.1,1.08,1.08,0,0,0-.9,1.24A2.49,2.49,0,0,0,17.65,13.09Z"/><path class="cls-1" d="M47.66,18.7c-.25-.2-.74-.14-1.12-.14H18.73c-.35,0-.81-.07-1,.12a2.19,2.19,0,0,0-.9,1.23c0,.39.48.87.86,1.17s.68.15,1,.15h28c.32,0,.74,0,.94-.14.37-.32.85-.78.86-1.18A2,2,0,0,0,47.66,18.7Z"/></g></g></svg>