<svg xmlns="http://www.w3.org/2000/svg" viewBox="0 0 100.05 70"><defs><style>.cls-1{fill:#0095cb;}</style></defs><g id="Layer_2" data-name="Layer 2"><g id="Layer_1-2" data-name="Layer 1"><g id="rZgZLZ"><path class="cls-1" d="M58.07,30.33c1.81.9,3.73,1.66,5.44,2.73a27,27,0,0,1,13.1,21.17A9.2,9.2,0,0,1,73,62.72a28.85,28.85,0,0,1-10.44,5.34,46,46,0,0,1-19.34,1.55,38.18,38.18,0,0,1-13.56-4.07,16,16,0,0,1-5.95-5,7.62,7.62,0,0,1-1.39-4.78C23,44.29,28.49,36.17,38.84,31.3c.69-.32,1.43-.57,2.2-.87-5.31-3.56-8.11-8.43-7.88-14.84A15.63,15.63,0,0,1,38.52,4.2,16.39,16.39,0,1,1,58.07,30.33Zm-7.91,36.1c1-.08,2.82-.16,4.6-.37a34.88,34.88,0,0,0,12.82-3.92,15,15,0,0,0,4.33-3.34A4.13,4.13,0,0,0,73,55.54c-.15-1.29-.21-2.58-.45-3.85a23.56,23.56,0,0,0-46.67,4,5.05,5.05,0,0,0,1.24,3.5,14.92,14.92,0,0,0,5.24,3.76C37.78,65.45,43.51,66.32,50.16,66.43Zm-.75-37.31C55,29.6,62.2,24.76,62.25,16.44a12.76,12.76,0,0,0-25.52,0C36.76,24.4,43.68,29.49,49.41,29.12Z"/><path class="cls-1" d="M71.17,35.65l-2.75-2.32a19.32,19.32,0,0,1,5.86-3.78A11.55,11.55,0,1,1,89,11.73c4.92,4.36,5.43,13.2-.7,17.82.34.15.66.29,1,.45C96,33.44,99.63,38.92,100,46.52a5.52,5.52,0,0,1-1.29,3.76,12.42,12.42,0,0,1-4.22,3.36,27.85,27.85,0,0,1-14.51,3l-.38-.06V53.08h.58a25,25,0,0,0,12.19-2.41,19.28,19.28,0,0,0,3.09-2.09,2.6,2.6,0,0,0,.94-2.32A15.16,15.16,0,0,0,84.07,32.08a14.88,14.88,0,0,0-12.56,3.31ZM81.25,28.2a7.89,7.89,0,1,0-.14-15.78,7.89,7.89,0,0,0,.14,15.78Z"/><path class="cls-1" d="M25.27,29.55a18,18,0,0,1,5.57,3.6l-2.71,2.3c-.76-.51-1.45-1.05-2.2-1.49a16,16,0,0,0-7.6-2.1A14.66,14.66,0,0,0,4,43.42c-.17.79-.23,1.6-.34,2.4a3,3,0,0,0,1.18,2.81,14.77,14.77,0,0,0,5.87,2.93,27.52,27.52,0,0,0,7.22,1H19.6l-.17,3.51c-1.21,0-2.46.08-3.69,0A25.18,25.18,0,0,1,4.28,52.7a9.94,9.94,0,0,1-3.5-3.41A7.53,7.53,0,0,1,.2,44.06,18.14,18.14,0,0,1,10.91,29.82l.47-.23A11.22,11.22,0,0,1,7.17,18.93a10.79,10.79,0,0,1,4-7,11.27,11.27,0,1,1,14.07,17.6Zm-7-1.36a7.62,7.62,0,1,0-7.61-7.63A7.57,7.57,0,0,0,18.25,28.19Z"/></g></g></g></svg>