<svg xmlns="http://www.w3.org/2000/svg" viewBox="0 0 80 80"><defs><style>.cls-1{fill:#00acf2;}.cls-2{fill:#fff;}</style></defs><g id="Layer_2" data-name="Layer 2"><g id="Layer_1-2" data-name="Layer 1"><circle class="cls-1" cx="40" cy="40" r="40"/><path class="cls-2" d="M21.56,26.47h0Z"/><path class="cls-2" d="M44.85,21.36c0,.37,0,.74,0,1.12s0,.79,0,1.18c0-.39,0-.79,0-1.18S44.86,21.73,44.85,21.36Z"/><path class="cls-2" d="M38.56,59.07c.63-.63.63-1,0-1.67l-4-4L34.17,53c.18-.09.31-.16.46-.22l7.91-3.37L52.87,45c.42-.18.83-.41.76-.93a1.41,1.41,0,0,0-.41-.78c-1.92-1.95-3.86-3.88-5.81-5.81a.4.4,0,0,1-.08-.6A4.77,4.77,0,0,0,48,34.16a5,5,0,0,0-5.37-4.75,5.6,5.6,0,0,0-2.47.89,4,4,0,0,0-.32-.38C38,28,36.1,26.15,34.21,24.27c-.77-.77-1.37-.66-1.79.34L24.18,43.93a2.47,2.47,0,0,1-.48.71q-2.09,2.11-4.19,4.2a6.52,6.52,0,0,0-1.71,2.73c-.12.38-.2.78-.3,1.17v1.5a15.94,15.94,0,0,0,.64,2,6.41,6.41,0,0,0,10,2c.35-.32.69-.66,1.06-1q2.3,2.31,4.57,4.58a8.55,8.55,0,0,0,.74.61H35a5.89,5.89,0,0,0,.68-.53Zm6.76-27a3.16,3.16,0,0,1,.58,3.75l-4.28-4.28A3.1,3.1,0,0,1,45.32,32.07ZM25.93,44.28q3.81-8.88,7.59-17.78a.72.72,0,0,1,.09-.18L51.12,43.83l-1.82.78c-.5.2-1,.61-1.49.53s-.77-.66-1.15-1l-9.75-9.76a3.09,3.09,0,0,0-.43-.37.86.86,0,0,0-1.09.08.89.89,0,0,0-.09,1.13,3.79,3.79,0,0,0,.38.42l10,10a2.06,2.06,0,0,0,.46.27L46,46l-1.2.51Q39,49,33.22,51.47a.56.56,0,0,1-.75-.14q-3.18-3.22-6.4-6.4A.51.51,0,0,1,25.93,44.28Zm.94,12.81a4.63,4.63,0,0,1-6.54-6.51c1.4-1.55,3-2.93,4.46-4.36l6.44,6.44C29.79,54.13,28.41,55.69,26.87,57.09Zm7.88,3.2-4.21-4.21,2.05-2,4.21,4.21Z"/><path class="cls-2" d="M57.79,61a1,1,0,0,1,1.37-.77l.54.18A1,1,0,0,0,61,60c.35-.58.68-1.16,1-1.74.71-1.23.71-1.26-.33-2.21a1,1,0,0,1,0-1.64l.42-.38a.94.94,0,0,0,.21-1.33c-.33-.58-.68-1.16-1-1.74-.71-1.24-.76-1.26-2.11-.82a1,1,0,0,1-1.38-.77l-.12-.56c-.15-.66-.41-.89-1.09-.9h-2c-1.37,0-1.45.06-1.72,1.42a1,1,0,0,1-1.4.81l-.54-.18a.93.93,0,0,0-1.26.47l-1,1.75c-.72,1.24-.71,1.29.34,2.24A1,1,0,0,1,49,56c-.14.13-.29.25-.42.38a.92.92,0,0,0-.21,1.33c.41.73.83,1.45,1.25,2.17s.68.78,1.41.55l.42-.13a1,1,0,0,1,1.43.83c.12.54.17,1.12.79,1.37H57C57.63,62.19,57.67,61.6,57.79,61Zm-1.7-.32H54.56a4.11,4.11,0,0,0-.22-.87,2.29,2.29,0,0,0-.59-.75c-.27-.22-.63-.32-.91-.53a1.25,1.25,0,0,0-1.31-.18c-.66.23-.66.22-1-.39-.12-.22-.24-.43-.4-.7a2.31,2.31,0,0,0,1-2.11,2.16,2.16,0,0,0-1.07-2.1l.78-1.34.8.26a1.09,1.09,0,0,0,1.07-.15,3.74,3.74,0,0,1,.79-.47,1.32,1.32,0,0,0,.89-1.14c.1-.64.13-.63.76-.63h.92a2.13,2.13,0,0,0,1.29,2,2.09,2.09,0,0,0,2.33.12l.79,1.37a2.13,2.13,0,0,0-1,2.09,2.1,2.1,0,0,0,1,2.09l-.78,1.37a2.22,2.22,0,0,0-2.37.15A2.17,2.17,0,0,0,56.09,60.72Z"/><path class="cls-2" d="M19.66,28.23q3.64,0,7.29,0a2.07,2.07,0,0,0,2.14-2.1q0-3.24,0-6.5A2.07,2.07,0,0,0,27,17.52q-3.69,0-7.38,0a2.09,2.09,0,0,0-2,1.44,1.55,1.55,0,0,1-.12.22v7.38a1.55,1.55,0,0,1,.12.22A2.11,2.11,0,0,0,19.66,28.23Zm-.4-8.38c0-.48.1-.58.6-.58h6.89c.49,0,.59.1.59.59v6c0,.51-.09.6-.62.6H19.83c-.41,0-.58-.16-.58-.57Q19.27,22.88,19.26,19.85Z"/><path class="cls-2" d="M19.14,38.37a.81.81,0,0,0,.66-.86.85.85,0,0,0-.67-.81,1.36,1.36,0,0,0-1.63.58v.44C17.74,38.4,18.29,38.53,19.14,38.37Z"/><path class="cls-2" d="M60,18.24c-.17-.41-.41-.72-.89-.72s-.72.32-.89.73c-.46,1.12-.94,2.23-1.41,3.35-.36.86-.73,1.72-1.06,2.59a.8.8,0,0,0,.46,1,.84.84,0,0,0,1.1-.35,2.27,2.27,0,0,0,.25-.55A.39.39,0,0,1,58,24a12.78,12.78,0,0,0,1.75,0c.57-.06.93.09,1.05.67A.78.78,0,0,0,61,25a.82.82,0,0,0,.95.27.9.9,0,0,0,.59-.87,5.11,5.11,0,0,0-.17-.52Zm-1.55,4,.66-1.58.67,1.58Z"/><path class="cls-2" d="M56.6,32.5c-1.13,0-2.25,0-3.38,0a.83.83,0,0,0-.85.91.85.85,0,0,0,.91.82h3.25a.86.86,0,0,0,.9-.83A.83.83,0,0,0,56.6,32.5Z"/><path class="cls-2" d="M54.86,34.23h0Z"/><path class="cls-2" d="M53.89,24.83a4.76,4.76,0,0,0,.45-.76,3.26,3.26,0,0,0-.65-.72.8.8,0,0,0-1,.21c-.76.75-1.52,1.5-2.26,2.26a.87.87,0,0,0,0,1.29.89.89,0,0,0,1.3-.08C52.43,26.31,53.17,25.58,53.89,24.83Z"/><path class="cls-2" d="M44.85,22.48c0-.38,0-.75,0-1.12V21A.86.86,0,0,0,44,20a.84.84,0,0,0-.91.87c0,1.07,0,2.14,0,3.2A.84.84,0,0,0,44,25a.86.86,0,0,0,.84-.93v-.4C44.86,23.27,44.85,22.87,44.85,22.48Z"/><path class="cls-2" d="M23.51,36.71a4.12,4.12,0,0,0-.52-.06v0c-.1,0-.2,0-.31,0a.87.87,0,0,0,0,1.74,3.16,3.16,0,0,0,.87,0,.82.82,0,0,0,.65-.83A.85.85,0,0,0,23.51,36.71Z"/><path class="cls-2" d="M21.71,39.35a.88.88,0,0,0-.86-.83.86.86,0,0,0-.86.77,3,3,0,0,0,0,1,.77.77,0,0,0,.81.65.83.83,0,0,0,.85-.68,2.42,2.42,0,0,0,.05-.47h0C21.71,39.61,21.72,39.48,21.71,39.35Z"/><path class="cls-2" d="M21.14,36.47c.39-.12.58-.48.58-1.06s-.18-1-.58-1.11a.83.83,0,0,0-1,.28,1.6,1.6,0,0,0,0,1.61A.83.83,0,0,0,21.14,36.47Z"/><path class="cls-2" d="M48.84,27.78a.85.85,0,0,0-.86.86.88.88,0,0,0,.85.88.91.91,0,0,0,.88-.87A.88.88,0,0,0,48.84,27.78Z"/><path class="cls-2" d="M33.69,33.24a.87.87,0,0,0,.86-.87.89.89,0,0,0-.86-.87.92.92,0,0,0-.88.88A.89.89,0,0,0,33.69,33.24Z"/><path class="cls-2" d="M55.33,52.55a2.63,2.63,0,1,0,2.6,2.65A2.65,2.65,0,0,0,55.33,52.55Zm0,3.5a.91.91,0,0,1-.87-.88.88.88,0,0,1,.88-.85.86.86,0,0,1,.86.87A.88.88,0,0,1,55.3,56.05Z"/><path class="cls-2" d="M23.28,25.34a9.78,9.78,0,0,0,1.78-1,1.81,1.81,0,0,0,0-2.88,10.53,10.53,0,0,0-1.81-1.05,1.82,1.82,0,0,0-2.53,1.49c0,.33,0,.67,0,1s0,.65,0,1A1.8,1.8,0,0,0,23.28,25.34Zm-.78-3.41,1.64.94-1.64.95Z"/></g></g></svg>