<svg xmlns="http://www.w3.org/2000/svg" viewBox="0 0 120 120"><defs><style>.cls-1{fill:#d4f1fb;}.cls-2{fill:#0071bc;}</style></defs><g id="Layer_2" data-name="Layer 2"><g id="Layer_1-2" data-name="Layer 1"><rect class="cls-1" width="120" height="120" rx="10"/><path class="cls-2" d="M54.71,102.45a.57.57,0,0,1-.18,0L11.1,86.24a.5.5,0,0,1-.31-.59L23.7,33.4a.53.53,0,0,1,.28-.34L60.84,16.3a.51.51,0,0,1,.42,0L111,40.1a.5.5,0,0,1,.27.56l-8.21,35.69a.46.46,0,0,1-.09.2L89.42,93.71a.54.54,0,0,1-.27.18l-34.32,8.54Zm-42.85-17,42.88,16,34-8.46L102.14,76l8.1-35.19L61,17.31,24.61,33.87Z"/></g></g></svg>