<svg xmlns="http://www.w3.org/2000/svg" viewBox="0 0 120 120"><defs><style>.cls-1{fill:#d4f1fb;}.cls-2{fill:#0071bc;}</style></defs><g id="Layer_2" data-name="Layer 2"><g id="Layer_1-2" data-name="Layer 1"><rect class="cls-1" width="120" height="120" rx="10"/><path class="cls-2" d="M84,101.13H84L51.54,96a.62.62,0,0,1-.22-.1l-31.87-24a.52.52,0,0,1-.2-.49l7.22-40.46a.54.54,0,0,1,.27-.36L65.56,11.09a.52.52,0,0,1,.5,0l34.47,22.62a.5.5,0,0,1,.22.45l-2.31,36.1a.48.48,0,0,1,0,.17L84.5,100.84A.5.5,0,0,1,84,101.13ZM51.82,95l31.93,5.1L97.44,70.13l2.3-35.72-34-22.29L27.42,31.36l-7.13,39.9Z"/></g></g></svg>