<svg xmlns="http://www.w3.org/2000/svg" viewBox="0 0 62 62"><defs><style>.cls-1{opacity:0.5;}.cls-2{fill:#f9f9f9;}.cls-3{fill:#fff;}</style></defs><g id="Layer_2" data-name="Layer 2"><g id="Layer_1-2" data-name="Layer 1"><g class="cls-1"><path class="cls-2" d="M51,62H11A11,11,0,0,1,0,51V11A11,11,0,0,1,11,0H51A11,11,0,0,1,62,11V51A11,11,0,0,1,51,62ZM11,2a9,9,0,0,0-9,9V51a9,9,0,0,0,9,9H51a9,9,0,0,0,9-9V11a9,9,0,0,0-9-9Z"/><path class="cls-3" d="M21.91,19.8a9.75,9.75,0,0,1,5,1.12,6.28,6.28,0,0,1,2.69,3.63,22.62,22.62,0,0,1,.82,6.74A22.55,22.55,0,0,1,29.64,38,6.22,6.22,0,0,1,27,41.65a9.75,9.75,0,0,1-5,1.12,9.75,9.75,0,0,1-5-1.12A6.15,6.15,0,0,1,14.2,38a23,23,0,0,1-.8-6.73,23,23,0,0,1,.8-6.74,6.21,6.21,0,0,1,2.67-3.63A9.75,9.75,0,0,1,21.91,19.8Zm0,3.84a4,4,0,0,0-1.76.35A2.57,2.57,0,0,0,19,25.17a7.27,7.27,0,0,0-.59,2.32,32.84,32.84,0,0,0-.18,3.8,32.63,32.63,0,0,0,.18,3.77A7.26,7.26,0,0,0,19,37.4a2.53,2.53,0,0,0,1.12,1.18,3.86,3.86,0,0,0,1.76.36,4,4,0,0,0,1.81-.36,2.58,2.58,0,0,0,1.15-1.18,7,7,0,0,0,.61-2.34,32.93,32.93,0,0,0,.17-3.77,33.15,33.15,0,0,0-.17-3.8,7,7,0,0,0-.61-2.32A2.63,2.63,0,0,0,23.69,24,4.17,4.17,0,0,0,21.88,23.64Z"/><path class="cls-3" d="M40.73,19.8a15.47,15.47,0,0,1,4.21.46,3.91,3.91,0,0,1,2.3,1.59A5.69,5.69,0,0,1,48,25a11.34,11.34,0,0,1-.29,2.7,4,4,0,0,1-1,1.91,3.77,3.77,0,0,1-2.11,1v.13a4.21,4.21,0,0,1,3.13,1.72,7.29,7.29,0,0,1,.9,3.81,8.09,8.09,0,0,1-.71,3.76,4.49,4.49,0,0,1-2.41,2.15,12.1,12.1,0,0,1-4.5.68c-1.28,0-2.57-.05-3.87-.17s-2.56-.26-3.78-.43l.2-3.59c.85.07,1.61.11,2.28.15l1.94.08q.93,0,1.89,0a8.9,8.9,0,0,0,2.46-.27,2,2,0,0,0,1.28-1,4.3,4.3,0,0,0,.39-2,4.5,4.5,0,0,0-.28-1.71,2,2,0,0,0-1-1.06,4.84,4.84,0,0,0-2.15-.33l-4.19,0V29.24h4.19A4.69,4.69,0,0,0,42,29a2,2,0,0,0,.91-.64,2.26,2.26,0,0,0,.4-.95,7.17,7.17,0,0,0,.09-1.18,3.61,3.61,0,0,0-.33-1.6A1.59,1.59,0,0,0,42,23.9a8.7,8.7,0,0,0-2.09-.2c-1.11,0-2.19,0-3.22.05l-2.74.08-.22-3.42c1.19-.22,2.37-.37,3.54-.47S39.58,19.8,40.73,19.8Z"/></g></g></g></svg>