<svg xmlns="http://www.w3.org/2000/svg" viewBox="0 0 62 62"><defs><style>.cls-1{opacity:0.5;}.cls-2{fill:#f9f9f9;}.cls-3{fill:#fff;}</style></defs><g id="Layer_2" data-name="Layer 2"><g id="Layer_1-2" data-name="Layer 1"><g class="cls-1"><path class="cls-2" d="M51,62H11A11,11,0,0,1,0,51V11A11,11,0,0,1,11,0H51A11,11,0,0,1,62,11V51A11,11,0,0,1,51,62ZM11,2a9,9,0,0,0-9,9V51a9,9,0,0,0,9,9H51a9,9,0,0,0,9-9V11a9,9,0,0,0-9-9Z"/><path class="cls-3" d="M24.07,19.8a9.75,9.75,0,0,1,5,1.12,6.28,6.28,0,0,1,2.69,3.63,22.62,22.62,0,0,1,.82,6.74A22.55,22.55,0,0,1,31.8,38a6.22,6.22,0,0,1-2.69,3.63,9.75,9.75,0,0,1-5,1.12,9.75,9.75,0,0,1-5-1.12A6.15,6.15,0,0,1,16.36,38a23,23,0,0,1-.8-6.73,23,23,0,0,1,.8-6.74A6.21,6.21,0,0,1,19,20.92,9.75,9.75,0,0,1,24.07,19.8Zm0,3.84a4,4,0,0,0-1.76.35,2.57,2.57,0,0,0-1.12,1.18,7.27,7.27,0,0,0-.59,2.32,32.84,32.84,0,0,0-.18,3.8,32.63,32.63,0,0,0,.18,3.77,7.26,7.26,0,0,0,.59,2.34,2.53,2.53,0,0,0,1.12,1.18,3.86,3.86,0,0,0,1.76.35,4,4,0,0,0,1.81-.35A2.58,2.58,0,0,0,27,37.4a7,7,0,0,0,.61-2.34,32.93,32.93,0,0,0,.17-3.77,33.15,33.15,0,0,0-.17-3.8A7,7,0,0,0,27,25.17,2.63,2.63,0,0,0,25.85,24,4.17,4.17,0,0,0,24,23.64Z"/><path class="cls-3" d="M45.06,20.25V42.33H40.2V26.68q0-.62,0-1.2a8.23,8.23,0,0,1,.16-1.2l-5.25,1.34-.57-3.17,5.63-2.2Z"/></g></g></g></svg>